<svg width="128" height="128" viewBox="0 0 128 128" fill="none" xmlns="http://www.w3.org/2000/svg">
    <g filter="url(#filter0_i_965_2)">
        <rect width="128" height="128" rx="8" fill="url(#paint0_linear_965_2)" />
        <rect x="1" y="1" width="126" height="126" rx="7" stroke="#232323" stroke-width="2" />
        <g filter="url(#filter1_d_965_2)">
            <mask id="path-3-outside-1_965_2" maskUnits="userSpaceOnUse" x="13" y="29" width="103" height="70"
                fill="black">
                <rect fill="white" x="13" y="29" width="103" height="70" />
                <path
                    d="M56.0308 78.872L57.5428 77.78C59.4468 76.66 60.7908 76.1 61.5748 76.1C63.3108 76.1 65.1868 77.668 67.2028 80.804C68.4348 82.764 69.0508 84.332 69.0508 85.508C69.0508 86.684 68.6588 87.664 67.8748 88.448C67.1468 89.232 66.2788 89.932 65.2708 90.548C64.2628 91.164 63.2828 91.752 62.3308 92.312C61.4348 92.872 59.5588 93.6 56.7028 94.496C53.8468 95.392 51.0748 95.84 48.3868 95.84C45.7548 95.84 43.0668 95.504 40.3228 94.832C37.6348 94.104 34.8348 92.928 31.9228 91.304C29.0668 89.624 26.4908 87.608 24.1948 85.256C21.8988 82.848 19.9948 79.796 18.4828 76.1C17.0268 72.348 16.2988 68.288 16.2988 63.92C16.2988 59.552 17.0268 55.604 18.4828 52.076C19.9388 48.492 21.7868 45.552 24.0268 43.256C26.3228 40.904 28.9268 38.944 31.8388 37.376C37.3268 34.352 42.8428 32.84 48.3868 32.84C51.0188 32.84 53.6788 33.26 56.3668 34.1C59.1108 34.884 61.1828 35.696 62.5828 36.536L64.5988 37.712C65.6068 38.328 66.3908 38.832 66.9508 39.224C68.4068 40.4 69.1348 41.744 69.1348 43.256C69.1348 44.712 68.5468 46.252 67.3708 47.876C65.1868 50.9 63.2268 52.412 61.4908 52.412C60.4828 52.412 59.0548 51.796 57.2068 50.564C54.8548 48.66 51.7188 47.708 47.7988 47.708C44.1588 47.708 40.5748 48.968 37.0468 51.488C35.3668 52.72 33.9668 54.456 32.8468 56.696C31.7268 58.936 31.1668 61.484 31.1668 64.34C31.1668 67.14 31.7268 69.66 32.8468 71.9C33.9668 74.14 35.3948 75.904 37.1308 77.192C40.5468 79.656 44.1028 80.888 47.7988 80.888C49.5348 80.888 51.1588 80.664 52.6708 80.216C54.2388 79.768 55.3588 79.32 56.0308 78.872ZM108.843 51.236C109.907 51.572 110.775 52.16 111.447 53C112.175 53.784 112.539 55.072 112.539 56.864C112.539 58.656 112.007 60.616 110.943 62.744C109.879 64.872 108.339 65.936 106.323 65.936C105.315 65.936 104.335 65.712 103.383 65.264C102.487 64.816 101.283 64.592 99.7706 64.592C98.2586 64.592 96.8306 65.124 95.4865 66.188C94.1985 67.252 93.5545 68.54 93.5545 70.052V87.692C93.5545 88.98 93.4985 89.96 93.3866 90.632C93.3306 91.248 93.0786 91.976 92.6306 92.816C91.7906 94.272 89.6065 95 86.0785 95C83.3905 95 81.4585 94.524 80.2825 93.572C79.3865 92.788 78.8825 91.584 78.7705 89.96C78.7705 89.4 78.7705 88.588 78.7705 87.524V58.04C78.7705 56.752 78.7985 55.8 78.8545 55.184C78.9665 54.512 79.2185 53.784 79.6105 53C80.3945 51.488 82.5785 50.732 86.1625 50.732C89.5225 50.732 91.6225 51.376 92.4625 52.664C93.0786 53.56 93.3866 54.484 93.3866 55.436C93.6666 55.044 94.0586 54.568 94.5626 54.008C95.1225 53.448 96.2706 52.692 98.0066 51.74C99.7426 50.788 101.255 50.312 102.543 50.312C103.887 50.312 105.007 50.396 105.903 50.564C106.799 50.676 107.779 50.9 108.843 51.236Z" />
            </mask>
            <path
                d="M56.0308 78.872L57.5428 77.78C59.4468 76.66 60.7908 76.1 61.5748 76.1C63.3108 76.1 65.1868 77.668 67.2028 80.804C68.4348 82.764 69.0508 84.332 69.0508 85.508C69.0508 86.684 68.6588 87.664 67.8748 88.448C67.1468 89.232 66.2788 89.932 65.2708 90.548C64.2628 91.164 63.2828 91.752 62.3308 92.312C61.4348 92.872 59.5588 93.6 56.7028 94.496C53.8468 95.392 51.0748 95.84 48.3868 95.84C45.7548 95.84 43.0668 95.504 40.3228 94.832C37.6348 94.104 34.8348 92.928 31.9228 91.304C29.0668 89.624 26.4908 87.608 24.1948 85.256C21.8988 82.848 19.9948 79.796 18.4828 76.1C17.0268 72.348 16.2988 68.288 16.2988 63.92C16.2988 59.552 17.0268 55.604 18.4828 52.076C19.9388 48.492 21.7868 45.552 24.0268 43.256C26.3228 40.904 28.9268 38.944 31.8388 37.376C37.3268 34.352 42.8428 32.84 48.3868 32.84C51.0188 32.84 53.6788 33.26 56.3668 34.1C59.1108 34.884 61.1828 35.696 62.5828 36.536L64.5988 37.712C65.6068 38.328 66.3908 38.832 66.9508 39.224C68.4068 40.4 69.1348 41.744 69.1348 43.256C69.1348 44.712 68.5468 46.252 67.3708 47.876C65.1868 50.9 63.2268 52.412 61.4908 52.412C60.4828 52.412 59.0548 51.796 57.2068 50.564C54.8548 48.66 51.7188 47.708 47.7988 47.708C44.1588 47.708 40.5748 48.968 37.0468 51.488C35.3668 52.72 33.9668 54.456 32.8468 56.696C31.7268 58.936 31.1668 61.484 31.1668 64.34C31.1668 67.14 31.7268 69.66 32.8468 71.9C33.9668 74.14 35.3948 75.904 37.1308 77.192C40.5468 79.656 44.1028 80.888 47.7988 80.888C49.5348 80.888 51.1588 80.664 52.6708 80.216C54.2388 79.768 55.3588 79.32 56.0308 78.872ZM108.843 51.236C109.907 51.572 110.775 52.16 111.447 53C112.175 53.784 112.539 55.072 112.539 56.864C112.539 58.656 112.007 60.616 110.943 62.744C109.879 64.872 108.339 65.936 106.323 65.936C105.315 65.936 104.335 65.712 103.383 65.264C102.487 64.816 101.283 64.592 99.7706 64.592C98.2586 64.592 96.8306 65.124 95.4865 66.188C94.1985 67.252 93.5545 68.54 93.5545 70.052V87.692C93.5545 88.98 93.4985 89.96 93.3866 90.632C93.3306 91.248 93.0786 91.976 92.6306 92.816C91.7906 94.272 89.6065 95 86.0785 95C83.3905 95 81.4585 94.524 80.2825 93.572C79.3865 92.788 78.8825 91.584 78.7705 89.96C78.7705 89.4 78.7705 88.588 78.7705 87.524V58.04C78.7705 56.752 78.7985 55.8 78.8545 55.184C78.9665 54.512 79.2185 53.784 79.6105 53C80.3945 51.488 82.5785 50.732 86.1625 50.732C89.5225 50.732 91.6225 51.376 92.4625 52.664C93.0786 53.56 93.3866 54.484 93.3866 55.436C93.6666 55.044 94.0586 54.568 94.5626 54.008C95.1225 53.448 96.2706 52.692 98.0066 51.74C99.7426 50.788 101.255 50.312 102.543 50.312C103.887 50.312 105.007 50.396 105.903 50.564C106.799 50.676 107.779 50.9 108.843 51.236Z"
                fill="white" />
            <path
                d="M56.0308 78.872L57.6949 81.3682L57.7417 81.337L57.7873 81.304L56.0308 78.872ZM57.5428 77.78L56.0218 75.1942L55.9005 75.2656L55.7864 75.348L57.5428 77.78ZM67.2028 80.804L69.7427 79.2075L69.7346 79.1946L69.7264 79.1817L67.2028 80.804ZM67.8748 88.448L65.7535 86.3267L65.7142 86.3659L65.6765 86.4066L67.8748 88.448ZM62.3308 92.312L60.8098 89.7262L60.775 89.7466L60.7408 89.768L62.3308 92.312ZM56.7028 94.496L57.6009 97.3584L57.6009 97.3584L56.7028 94.496ZM40.3228 94.832L39.5386 97.7277L39.5738 97.7372L39.6092 97.7459L40.3228 94.832ZM31.9228 91.304L30.4018 93.8898L30.4315 93.9073L30.4616 93.9241L31.9228 91.304ZM24.1948 85.256L22.0236 87.3262L22.0358 87.339L22.0481 87.3516L24.1948 85.256ZM18.4828 76.1L15.686 77.1853L15.6959 77.2107L15.7062 77.2359L18.4828 76.1ZM18.4828 52.076L21.256 53.2205L21.2591 53.2128L21.2622 53.2051L18.4828 52.076ZM24.0268 43.256L21.8801 41.1604L21.8795 41.161L24.0268 43.256ZM31.8388 37.376L33.2611 40.0174L33.2739 40.0105L33.2866 40.0035L31.8388 37.376ZM56.3668 34.1L55.472 36.9634L55.5072 36.9744L55.5427 36.9846L56.3668 34.1ZM62.5828 36.536L61.0393 39.1085L61.0552 39.118L61.0712 39.1273L62.5828 36.536ZM64.5988 37.712L66.1632 35.1522L66.137 35.1361L66.1104 35.1207L64.5988 37.712ZM66.9508 39.224L68.8358 36.8902L68.7557 36.8254L68.6712 36.7663L66.9508 39.224ZM67.3708 47.876L64.941 46.1165L64.9388 46.1195L67.3708 47.876ZM57.2068 50.564L55.3192 52.8957L55.4272 52.9831L55.5427 53.0601L57.2068 50.564ZM37.0468 51.488L35.3031 49.0468L35.2879 49.0577L35.2727 49.0688L37.0468 51.488ZM37.1308 77.192L35.3433 79.6013L35.3595 79.6133L35.3758 79.6251L37.1308 77.192ZM52.6708 80.216L51.8467 77.3314L51.8326 77.3354L51.8186 77.3396L52.6708 80.216ZM57.7873 81.304L59.2993 80.212L55.7864 75.348L54.2744 76.44L57.7873 81.304ZM59.0639 80.3658C59.9515 79.8437 60.6339 79.4971 61.1327 79.2892C61.6984 79.0535 61.7866 79.1 61.5748 79.1V73.1C60.5791 73.1 59.6033 73.4265 58.825 73.7508C57.9798 74.1029 57.0382 74.5963 56.0218 75.1942L59.0639 80.3658ZM61.5748 79.1C61.5003 79.1 61.744 79.0631 62.3599 79.5778C62.9765 80.0932 63.7589 80.9946 64.6793 82.4263L69.7264 79.1817C68.6307 77.4774 67.4672 76.0268 66.2078 74.9742C64.9476 73.9209 63.3854 73.1 61.5748 73.1V79.1ZM64.6629 82.4005C65.8355 84.2659 66.0508 85.2231 66.0508 85.508H72.0508C72.0508 83.4409 71.0342 81.2621 69.7427 79.2075L64.6629 82.4005ZM66.0508 85.508C66.0508 85.9419 65.9381 86.1421 65.7535 86.3267L69.9962 90.5693C71.3795 89.1859 72.0508 87.4261 72.0508 85.508H66.0508ZM65.6765 86.4066C65.1534 86.97 64.5045 87.5005 63.7065 87.9882L66.8352 93.1078C68.0532 92.3635 69.1403 91.494 70.0732 90.4894L65.6765 86.4066ZM63.7065 87.9882C62.7119 88.596 61.7463 89.1753 60.8098 89.7262L63.8519 94.8978C64.8194 94.3287 65.8138 93.732 66.8352 93.1078L63.7065 87.9882ZM60.7408 89.768C60.22 90.0935 58.7088 90.7225 55.8048 91.6336L57.6009 97.3584C60.4089 96.4775 62.6496 95.6505 63.9208 94.856L60.7408 89.768ZM55.8048 91.6336C53.2068 92.4486 50.7378 92.84 48.3868 92.84V98.84C51.4118 98.84 54.4869 98.3354 57.6009 97.3584L55.8048 91.6336ZM48.3868 92.84C46.0122 92.84 43.5639 92.5371 41.0364 91.9181L39.6092 97.7459C42.5698 98.4709 45.4975 98.84 48.3868 98.84V92.84ZM41.1071 91.9363C38.6961 91.2833 36.123 90.2114 33.384 88.6839L30.4616 93.9241C33.5467 95.6446 36.5736 96.9247 39.5386 97.7277L41.1071 91.9363ZM33.4439 88.7182C30.8154 87.172 28.4501 85.3204 26.3416 83.1604L22.0481 87.3516C24.5315 89.8956 27.3183 92.076 30.4018 93.8898L33.4439 88.7182ZM26.366 83.1858C24.3744 81.097 22.6574 78.3813 21.2595 74.9641L15.7062 77.2359C17.3322 81.2107 19.4232 84.599 22.0236 87.3262L26.366 83.1858ZM21.2796 75.0147C19.969 71.6372 19.2988 67.9486 19.2988 63.92H13.2988C13.2988 68.6274 14.0847 73.0588 15.686 77.1853L21.2796 75.0147ZM19.2988 63.92C19.2988 59.8884 19.9698 56.3369 21.256 53.2205L15.7097 50.9315C14.0838 54.8711 13.2988 59.2156 13.2988 63.92H19.2988ZM21.2622 53.2051C22.6014 49.9086 24.2551 47.3181 26.1742 45.351L21.8795 41.161C19.3186 43.7859 17.2762 47.0754 15.7034 50.9469L21.2622 53.2051ZM26.1736 45.3516C28.2558 43.2186 30.6152 41.4422 33.2611 40.0174L30.4165 34.7346C27.2385 36.4458 24.3899 38.5894 21.8801 41.1604L26.1736 45.3516ZM33.2866 40.0035C38.3898 37.1916 43.4121 35.84 48.3868 35.84V29.84C42.2736 29.84 36.2638 31.5124 30.391 34.7485L33.2866 40.0035ZM48.3868 35.84C50.6948 35.84 53.0534 36.2076 55.472 36.9634L57.2617 31.2366C54.3043 30.3124 51.3428 29.84 48.3868 29.84V35.84ZM55.5427 36.9846C58.1923 37.7416 59.9716 38.4678 61.0393 39.1085L64.1263 33.9635C62.3941 32.9242 60.0294 32.0264 57.191 31.2154L55.5427 36.9846ZM61.0712 39.1273L63.0872 40.3033L66.1104 35.1207L64.0944 33.9447L61.0712 39.1273ZM63.0345 40.2718C64.0215 40.8751 64.745 41.3419 65.2304 41.6817L68.6712 36.7663C68.0367 36.3221 67.1921 35.7809 66.1632 35.1522L63.0345 40.2718ZM65.0658 41.5578C66.0008 42.313 66.1348 42.8633 66.1348 43.256H72.1348C72.1348 40.6247 70.8128 38.487 68.8358 36.8902L65.0658 41.5578ZM66.1348 43.256C66.1348 43.8813 65.883 44.8156 64.941 46.1165L69.8007 49.6355C71.2106 47.6884 72.1348 45.5427 72.1348 43.256H66.1348ZM64.9388 46.1195C63.9394 47.5033 63.0974 48.3881 62.4304 48.9027C61.758 49.4214 61.4654 49.412 61.4908 49.412V55.412C63.2522 55.412 64.8077 54.6466 66.0952 53.6533C67.3882 52.6559 68.6182 51.2727 69.8029 49.6325L64.9388 46.1195ZM61.4908 49.412C61.5562 49.412 61.3736 49.4203 60.8521 49.1954C60.3579 48.9822 59.7025 48.6222 58.8709 48.0678L55.5427 53.0601C56.5591 53.7377 57.5418 54.3018 58.4756 54.7046C59.382 55.0957 60.4175 55.412 61.4908 55.412V49.412ZM59.0944 48.2323C56.0679 45.7822 52.2004 44.708 47.7988 44.708V50.708C51.2372 50.708 53.6418 51.5378 55.3192 52.8957L59.0944 48.2323ZM47.7988 44.708C43.4213 44.708 39.2403 46.2345 35.3031 49.0468L38.7905 53.9292C41.9094 51.7014 44.8963 50.708 47.7988 50.708V44.708ZM35.2727 49.0688C33.1381 50.6342 31.454 52.7734 30.1635 55.3544L35.5301 58.0376C36.4797 56.1386 37.5955 54.8058 38.8209 53.9072L35.2727 49.0688ZM30.1635 55.3544C28.8077 58.066 28.1668 61.084 28.1668 64.34H34.1668C34.1668 61.884 34.6459 59.806 35.5301 58.0376L30.1635 55.3544ZM28.1668 64.34C28.1668 67.5502 28.8118 70.5381 30.1635 73.2416L35.5301 70.5584C34.6419 68.7819 34.1668 66.7298 34.1668 64.34H28.1668ZM30.1635 73.2416C31.4607 75.836 33.1732 77.9913 35.3433 79.6013L38.9184 74.7827C37.6164 73.8167 36.4729 72.444 35.5301 70.5584L30.1635 73.2416ZM35.3758 79.6251C39.2286 82.4041 43.3871 83.888 47.7988 83.888V77.888C44.8185 77.888 41.8651 76.9078 38.8858 74.7589L35.3758 79.6251ZM47.7988 83.888C49.7946 83.888 51.7081 83.6302 53.5231 83.0924L51.8186 77.3396C50.6096 77.6978 49.2751 77.888 47.7988 77.888V83.888ZM53.495 83.1006C55.122 82.6357 56.6174 82.0865 57.6949 81.3682L54.3667 76.3758C54.1003 76.5535 53.3557 76.9003 51.8467 77.3314L53.495 83.1006ZM108.843 51.236L109.746 48.3752L109.746 48.3752L108.843 51.236ZM111.447 53L109.104 54.8741L109.173 54.9604L109.248 55.0414L111.447 53ZM110.943 62.744L108.259 61.4024L108.259 61.4024L110.943 62.744ZM103.383 65.264L102.041 67.9473L102.073 67.9633L102.105 67.9785L103.383 65.264ZM95.4865 66.188L93.6244 63.8359L93.6 63.8552L93.5759 63.8751L95.4865 66.188ZM93.3866 90.632L90.4274 90.1388L90.409 90.2491L90.3989 90.3604L93.3866 90.632ZM92.6306 92.816L95.2291 94.3152L95.2541 94.2719L95.2776 94.2278L92.6306 92.816ZM80.2825 93.572L78.307 95.8297L78.3503 95.8676L78.395 95.9037L80.2825 93.572ZM78.7705 89.96H75.7705V90.0633L75.7777 90.1664L78.7705 89.96ZM78.8545 55.184L75.8954 54.6908L75.877 54.8011L75.8669 54.9124L78.8545 55.184ZM79.6105 53L76.9473 51.619L76.9371 51.6386L76.9273 51.6584L79.6105 53ZM92.4625 52.664L89.9497 54.3028L89.9697 54.3334L89.9904 54.3636L92.4625 52.664ZM93.3866 55.436H90.3866V64.7974L95.8278 57.1797L93.3866 55.436ZM94.5626 54.008L92.4412 51.8867L92.3854 51.9425L92.3327 52.0011L94.5626 54.008ZM98.0066 51.74L96.5641 49.1096L96.5641 49.1096L98.0066 51.74ZM105.903 50.564L105.35 53.5126L105.44 53.5295L105.53 53.5408L105.903 50.564ZM107.939 54.0967C108.459 54.2608 108.818 54.5163 109.104 54.8741L113.789 51.1259C112.731 49.8037 111.354 48.8832 109.746 48.3752L107.939 54.0967ZM109.248 55.0414C109.218 55.0087 109.294 55.0708 109.379 55.3699C109.465 55.676 109.539 56.1569 109.539 56.864H115.539C115.539 54.7918 115.14 52.569 113.645 50.9586L109.248 55.0414ZM109.539 56.864C109.539 58.0634 109.18 59.5602 108.259 61.4024L113.626 64.0856C114.833 61.6718 115.539 59.2486 115.539 56.864H109.539ZM108.259 61.4024C107.893 62.1343 107.541 62.4926 107.284 62.6698C107.055 62.8285 106.771 62.936 106.323 62.936V68.936C107.89 68.936 109.384 68.5115 110.695 67.6062C111.978 66.7194 112.928 65.4817 113.626 64.0856L108.259 61.4024ZM106.323 62.936C105.776 62.936 105.23 62.8179 104.66 62.5495L102.105 67.9785C103.439 68.606 104.854 68.936 106.323 68.936V62.936ZM104.724 62.5807C103.254 61.8454 101.532 61.592 99.7706 61.592V67.592C101.033 67.592 101.72 67.7866 102.041 67.9473L104.724 62.5807ZM99.7706 61.592C97.4932 61.592 95.4238 62.4114 93.6244 63.8359L97.3487 68.5401C98.2373 67.8366 99.0239 67.592 99.7706 67.592V61.592ZM93.5759 63.8751C91.68 65.4413 90.5545 67.544 90.5545 70.052H96.5545C96.5545 69.536 96.7171 69.0627 97.3972 68.5009L93.5759 63.8751ZM90.5545 70.052V87.692H96.5545V70.052H90.5545ZM90.5545 87.692C90.5545 88.9328 90.498 89.7152 90.4274 90.1388L96.3457 91.1252C96.4991 90.2048 96.5545 89.0272 96.5545 87.692H90.5545ZM90.3989 90.3604C90.3933 90.4215 90.3341 90.7468 89.9835 91.4042L95.2776 94.2278C95.823 93.2052 96.2678 92.0745 96.3742 90.9036L90.3989 90.3604ZM90.032 91.3168C90.0953 91.2072 90.0683 91.3898 89.4139 91.608C88.7451 91.8309 87.6728 92 86.0785 92V98C88.0123 98 89.796 97.8051 91.3112 97.3C92.8408 96.7902 94.3258 95.8808 95.2291 94.3152L90.032 91.3168ZM86.0785 92C83.6013 92 82.5324 91.5335 82.1701 91.2403L78.395 95.9037C80.3847 97.5145 83.1798 98 86.0785 98V92ZM82.2581 91.3143C82.1511 91.2207 81.8414 90.8836 81.7634 89.7536L75.7777 90.1664C75.9237 92.2844 76.622 94.3553 78.307 95.8297L82.2581 91.3143ZM81.7705 89.96C81.7705 89.9589 81.7705 89.9578 81.7705 89.9567C81.7705 89.9556 81.7705 89.9545 81.7705 89.9534C81.7705 89.9523 81.7705 89.9512 81.7705 89.9501C81.7705 89.949 81.7705 89.9479 81.7705 89.9468C81.7705 89.9457 81.7705 89.9446 81.7705 89.9435C81.7705 89.9424 81.7705 89.9413 81.7705 89.9402C81.7705 89.9391 81.7705 89.938 81.7705 89.9369C81.7705 89.9358 81.7705 89.9347 81.7705 89.9336C81.7705 89.9325 81.7705 89.9313 81.7705 89.9302C81.7705 89.9291 81.7705 89.928 81.7705 89.9269C81.7705 89.9258 81.7705 89.9247 81.7705 89.9236C81.7705 89.9224 81.7705 89.9213 81.7705 89.9202C81.7705 89.9191 81.7705 89.918 81.7705 89.9169C81.7705 89.9157 81.7705 89.9146 81.7705 89.9135C81.7705 89.9124 81.7705 89.9113 81.7705 89.9101C81.7705 89.909 81.7705 89.9079 81.7705 89.9068C81.7705 89.9056 81.7705 89.9045 81.7705 89.9034C81.7705 89.9023 81.7705 89.9011 81.7705 89.9C81.7705 89.8989 81.7705 89.8977 81.7705 89.8966C81.7705 89.8955 81.7705 89.8944 81.7705 89.8932C81.7705 89.8921 81.7705 89.891 81.7705 89.8898C81.7705 89.8887 81.7705 89.8876 81.7705 89.8864C81.7705 89.8853 81.7705 89.8841 81.7705 89.883C81.7705 89.8819 81.7705 89.8807 81.7705 89.8796C81.7705 89.8784 81.7705 89.8773 81.7705 89.8762C81.7705 89.875 81.7705 89.8739 81.7705 89.8727C81.7705 89.8716 81.7705 89.8704 81.7705 89.8693C81.7705 89.8682 81.7705 89.867 81.7705 89.8659C81.7705 89.8647 81.7705 89.8636 81.7705 89.8624C81.7705 89.8613 81.7705 89.8601 81.7705 89.859C81.7705 89.8578 81.7705 89.8567 81.7705 89.8555C81.7705 89.8544 81.7705 89.8532 81.7705 89.852C81.7705 89.8509 81.7705 89.8497 81.7705 89.8486C81.7705 89.8474 81.7705 89.8463 81.7705 89.8451C81.7705 89.8439 81.7705 89.8428 81.7705 89.8416C81.7705 89.8405 81.7705 89.8393 81.7705 89.8381C81.7705 89.837 81.7705 89.8358 81.7705 89.8346C81.7705 89.8335 81.7705 89.8323 81.7705 89.8311C81.7705 89.83 81.7705 89.8288 81.7705 89.8276C81.7705 89.8265 81.7705 89.8253 81.7705 89.8241C81.7705 89.823 81.7705 89.8218 81.7705 89.8206C81.7705 89.8194 81.7705 89.8183 81.7705 89.8171C81.7705 89.8159 81.7705 89.8148 81.7705 89.8136C81.7705 89.8124 81.7705 89.8112 81.7705 89.81C81.7705 89.8089 81.7705 89.8077 81.7705 89.8065C81.7705 89.8053 81.7705 89.8041 81.7705 89.803C81.7705 89.8018 81.7705 89.8006 81.7705 89.7994C81.7705 89.7982 81.7705 89.797 81.7705 89.7959C81.7705 89.7947 81.7705 89.7935 81.7705 89.7923C81.7705 89.7911 81.7705 89.7899 81.7705 89.7887C81.7705 89.7875 81.7705 89.7863 81.7705 89.7852C81.7705 89.784 81.7705 89.7828 81.7705 89.7816C81.7705 89.7804 81.7705 89.7792 81.7705 89.778C81.7705 89.7768 81.7705 89.7756 81.7705 89.7744C81.7705 89.7732 81.7705 89.772 81.7705 89.7708C81.7705 89.7696 81.7705 89.7684 81.7705 89.7672C81.7705 89.766 81.7705 89.7648 81.7705 89.7636C81.7705 89.7624 81.7705 89.7612 81.7705 89.76C81.7705 89.7588 81.7705 89.7576 81.7705 89.7564C81.7705 89.7552 81.7705 89.754 81.7705 89.7527C81.7705 89.7515 81.7705 89.7503 81.7705 89.7491C81.7705 89.7479 81.7705 89.7467 81.7705 89.7455C81.7705 89.7443 81.7705 89.743 81.7705 89.7418C81.7705 89.7406 81.7705 89.7394 81.7705 89.7382C81.7705 89.737 81.7705 89.7358 81.7705 89.7345C81.7705 89.7333 81.7705 89.7321 81.7705 89.7309C81.7705 89.7297 81.7705 89.7284 81.7705 89.7272C81.7705 89.726 81.7705 89.7248 81.7705 89.7235C81.7705 89.7223 81.7705 89.7211 81.7705 89.7199C81.7705 89.7186 81.7705 89.7174 81.7705 89.7162C81.7705 89.715 81.7705 89.7137 81.7705 89.7125C81.7705 89.7113 81.7705 89.71 81.7705 89.7088C81.7705 89.7076 81.7705 89.7063 81.7705 89.7051C81.7705 89.7039 81.7705 89.7026 81.7705 89.7014C81.7705 89.7002 81.7705 89.6989 81.7705 89.6977C81.7705 89.6964 81.7705 89.6952 81.7705 89.694C81.7705 89.6927 81.7705 89.6915 81.7705 89.6902C81.7705 89.689 81.7705 89.6878 81.7705 89.6865C81.7705 89.6853 81.7705 89.684 81.7705 89.6828C81.7705 89.6815 81.7705 89.6803 81.7705 89.679C81.7705 89.6778 81.7705 89.6765 81.7705 89.6753C81.7705 89.674 81.7705 89.6728 81.7705 89.6715C81.7705 89.6703 81.7705 89.669 81.7705 89.6678C81.7705 89.6665 81.7705 89.6653 81.7705 89.664C81.7705 89.6628 81.7705 89.6615 81.7705 89.6603C81.7705 89.659 81.7705 89.6577 81.7705 89.6565C81.7705 89.6552 81.7705 89.654 81.7705 89.6527C81.7705 89.6514 81.7705 89.6502 81.7705 89.6489C81.7705 89.6477 81.7705 89.6464 81.7705 89.6451C81.7705 89.6439 81.7705 89.6426 81.7705 89.6413C81.7705 89.6401 81.7705 89.6388 81.7705 89.6375C81.7705 89.6363 81.7705 89.635 81.7705 89.6337C81.7705 89.6324 81.7705 89.6312 81.7705 89.6299C81.7705 89.6286 81.7705 89.6274 81.7705 89.6261C81.7705 89.6248 81.7705 89.6235 81.7705 89.6223C81.7705 89.621 81.7705 89.6197 81.7705 89.6184C81.7705 89.6171 81.7705 89.6159 81.7705 89.6146C81.7705 89.6133 81.7705 89.612 81.7705 89.6107C81.7705 89.6095 81.7705 89.6082 81.7705 89.6069C81.7705 89.6056 81.7705 89.6043 81.7705 89.603C81.7705 89.6017 81.7705 89.6005 81.7705 89.5992C81.7705 89.5979 81.7705 89.5966 81.7705 89.5953C81.7705 89.594 81.7705 89.5927 81.7705 89.5914C81.7705 89.5901 81.7705 89.5889 81.7705 89.5876C81.7705 89.5863 81.7705 89.585 81.7705 89.5837C81.7705 89.5824 81.7705 89.5811 81.7705 89.5798C81.7705 89.5785 81.7705 89.5772 81.7705 89.5759C81.7705 89.5746 81.7705 89.5733 81.7705 89.572C81.7705 89.5707 81.7705 89.5694 81.7705 89.5681C81.7705 89.5668 81.7705 89.5655 81.7705 89.5642C81.7705 89.5629 81.7705 89.5616 81.7705 89.5602C81.7705 89.5589 81.7705 89.5576 81.7705 89.5563C81.7705 89.555 81.7705 89.5537 81.7705 89.5524C81.7705 89.5511 81.7705 89.5498 81.7705 89.5485C81.7705 89.5471 81.7705 89.5458 81.7705 89.5445C81.7705 89.5432 81.7705 89.5419 81.7705 89.5406C81.7705 89.5393 81.7705 89.5379 81.7705 89.5366C81.7705 89.5353 81.7705 89.534 81.7705 89.5327C81.7705 89.5313 81.7705 89.53 81.7705 89.5287C81.7705 89.5274 81.7705 89.526 81.7705 89.5247C81.7705 89.5234 81.7705 89.5221 81.7705 89.5207C81.7705 89.5194 81.7705 89.5181 81.7705 89.5168C81.7705 89.5154 81.7705 89.5141 81.7705 89.5128C81.7705 89.5114 81.7705 89.5101 81.7705 89.5088C81.7705 89.5074 81.7705 89.5061 81.7705 89.5048C81.7705 89.5034 81.7705 89.5021 81.7705 89.5008C81.7705 89.4994 81.7705 89.4981 81.7705 89.4968C81.7705 89.4954 81.7705 89.4941 81.7705 89.4927C81.7705 89.4914 81.7705 89.4901 81.7705 89.4887C81.7705 89.4874 81.7705 89.486 81.7705 89.4847C81.7705 89.4834 81.7705 89.482 81.7705 89.4807C81.7705 89.4793 81.7705 89.478 81.7705 89.4766C81.7705 89.4753 81.7705 89.4739 81.7705 89.4726C81.7705 89.4712 81.7705 89.4699 81.7705 89.4685C81.7705 89.4672 81.7705 89.4658 81.7705 89.4645C81.7705 89.4631 81.7705 89.4618 81.7705 89.4604C81.7705 89.4591 81.7705 89.4577 81.7705 89.4563C81.7705 89.455 81.7705 89.4536 81.7705 89.4523C81.7705 89.4509 81.7705 89.4495 81.7705 89.4482C81.7705 89.4468 81.7705 89.4455 81.7705 89.4441C81.7705 89.4427 81.7705 89.4414 81.7705 89.44C81.7705 89.4386 81.7705 89.4373 81.7705 89.4359C81.7705 89.4345 81.7705 89.4332 81.7705 89.4318C81.7705 89.4304 81.7705 89.4291 81.7705 89.4277C81.7705 89.4263 81.7705 89.425 81.7705 89.4236C81.7705 89.4222 81.7705 89.4208 81.7705 89.4195C81.7705 89.4181 81.7705 89.4167 81.7705 89.4153C81.7705 89.414 81.7705 89.4126 81.7705 89.4112C81.7705 89.4098 81.7705 89.4084 81.7705 89.4071C81.7705 89.4057 81.7705 89.4043 81.7705 89.4029C81.7705 89.4015 81.7705 89.4002 81.7705 89.3988C81.7705 89.3974 81.7705 89.396 81.7705 89.3946C81.7705 89.3932 81.7705 89.3918 81.7705 89.3905C81.7705 89.3891 81.7705 89.3877 81.7705 89.3863C81.7705 89.3849 81.7705 89.3835 81.7705 89.3821C81.7705 89.3807 81.7705 89.3793 81.7705 89.3779C81.7705 89.3765 81.7705 89.3752 81.7705 89.3738C81.7705 89.3724 81.7705 89.371 81.7705 89.3696C81.7705 89.3682 81.7705 89.3668 81.7705 89.3654C81.7705 89.364 81.7705 89.3626 81.7705 89.3612C81.7705 89.3598 81.7705 89.3584 81.7705 89.357C81.7705 89.3556 81.7705 89.3542 81.7705 89.3528C81.7705 89.3513 81.7705 89.3499 81.7705 89.3485C81.7705 89.3471 81.7705 89.3457 81.7705 89.3443C81.7705 89.3429 81.7705 89.3415 81.7705 89.3401C81.7705 89.3387 81.7705 89.3373 81.7705 89.3358C81.7705 89.3344 81.7705 89.333 81.7705 89.3316C81.7705 89.3302 81.7705 89.3288 81.7705 89.3274C81.7705 89.3259 81.7705 89.3245 81.7705 89.3231C81.7705 89.3217 81.7705 89.3203 81.7705 89.3188C81.7705 89.3174 81.7705 89.316 81.7705 89.3146C81.7705 89.3132 81.7705 89.3117 81.7705 89.3103C81.7705 89.3089 81.7705 89.3075 81.7705 89.306C81.7705 89.3046 81.7705 89.3032 81.7705 89.3017C81.7705 89.3003 81.7705 89.2989 81.7705 89.2975C81.7705 89.296 81.7705 89.2946 81.7705 89.2932C81.7705 89.2917 81.7705 89.2903 81.7705 89.2889C81.7705 89.2874 81.7705 89.286 81.7705 89.2846C81.7705 89.2831 81.7705 89.2817 81.7705 89.2803C81.7705 89.2788 81.7705 89.2774 81.7705 89.2759C81.7705 89.2745 81.7705 89.2731 81.7705 89.2716C81.7705 89.2702 81.7705 89.2687 81.7705 89.2673C81.7705 89.2658 81.7705 89.2644 81.7705 89.263C81.7705 89.2615 81.7705 89.2601 81.7705 89.2586C81.7705 89.2572 81.7705 89.2557 81.7705 89.2543C81.7705 89.2528 81.7705 89.2514 81.7705 89.2499C81.7705 89.2485 81.7705 89.247 81.7705 89.2456C81.7705 89.2441 81.7705 89.2427 81.7705 89.2412C81.7705 89.2397 81.7705 89.2383 81.7705 89.2368C81.7705 89.2354 81.7705 89.2339 81.7705 89.2325C81.7705 89.231 81.7705 89.2295 81.7705 89.2281C81.7705 89.2266 81.7705 89.2252 81.7705 89.2237C81.7705 89.2222 81.7705 89.2208 81.7705 89.2193C81.7705 89.2178 81.7705 89.2164 81.7705 89.2149C81.7705 89.2134 81.7705 89.212 81.7705 89.2105C81.7705 89.209 81.7705 89.2076 81.7705 89.2061C81.7705 89.2046 81.7705 89.2031 81.7705 89.2017C81.7705 89.2002 81.7705 89.1987 81.7705 89.1973C81.7705 89.1958 81.7705 89.1943 81.7705 89.1928C81.7705 89.1913 81.7705 89.1899 81.7705 89.1884C81.7705 89.1869 81.7705 89.1854 81.7705 89.184C81.7705 89.1825 81.7705 89.181 81.7705 89.1795C81.7705 89.178 81.7705 89.1765 81.7705 89.1751C81.7705 89.1736 81.7705 89.1721 81.7705 89.1706C81.7705 89.1691 81.7705 89.1676 81.7705 89.1661C81.7705 89.1647 81.7705 89.1632 81.7705 89.1617C81.7705 89.1602 81.7705 89.1587 81.7705 89.1572C81.7705 89.1557 81.7705 89.1542 81.7705 89.1527C81.7705 89.1512 81.7705 89.1497 81.7705 89.1482C81.7705 89.1468 81.7705 89.1453 81.7705 89.1438C81.7705 89.1423 81.7705 89.1408 81.7705 89.1393C81.7705 89.1378 81.7705 89.1363 81.7705 89.1348C81.7705 89.1333 81.7705 89.1318 81.7705 89.1303C81.7705 89.1288 81.7705 89.1272 81.7705 89.1257C81.7705 89.1242 81.7705 89.1227 81.7705 89.1212C81.7705 89.1197 81.7705 89.1182 81.7705 89.1167C81.7705 89.1152 81.7705 89.1137 81.7705 89.1122C81.7705 89.1107 81.7705 89.1091 81.7705 89.1076C81.7705 89.1061 81.7705 89.1046 81.7705 89.1031C81.7705 89.1016 81.7705 89.1001 81.7705 89.0985C81.7705 89.097 81.7705 89.0955 81.7705 89.094C81.7705 89.0925 81.7705 89.091 81.7705 89.0894C81.7705 89.0879 81.7705 89.0864 81.7705 89.0849C81.7705 89.0833 81.7705 89.0818 81.7705 89.0803C81.7705 89.0788 81.7705 89.0772 81.7705 89.0757C81.7705 89.0742 81.7705 89.0727 81.7705 89.0711C81.7705 89.0696 81.7705 89.0681 81.7705 89.0666C81.7705 89.065 81.7705 89.0635 81.7705 89.062C81.7705 89.0604 81.7705 89.0589 81.7705 89.0574C81.7705 89.0558 81.7705 89.0543 81.7705 89.0528C81.7705 89.0512 81.7705 89.0497 81.7705 89.0481C81.7705 89.0466 81.7705 89.0451 81.7705 89.0435C81.7705 89.042 81.7705 89.0404 81.7705 89.0389C81.7705 89.0374 81.7705 89.0358 81.7705 89.0343C81.7705 89.0327 81.7705 89.0312 81.7705 89.0296C81.7705 89.0281 81.7705 89.0266 81.7705 89.025C81.7705 89.0235 81.7705 89.0219 81.7705 89.0204C81.7705 89.0188 81.7705 89.0173 81.7705 89.0157C81.7705 89.0142 81.7705 89.0126 81.7705 89.011C81.7705 89.0095 81.7705 89.0079 81.7705 89.0064C81.7705 89.0048 81.7705 89.0033 81.7705 89.0017C81.7705 89.0002 81.7705 88.9986 81.7705 88.997C81.7705 88.9955 81.7705 88.9939 81.7705 88.9924C81.7705 88.9908 81.7705 88.9892 81.7705 88.9877C81.7705 88.9861 81.7705 88.9846 81.7705 88.983C81.7705 88.9814 81.7705 88.9799 81.7705 88.9783C81.7705 88.9767 81.7705 88.9752 81.7705 88.9736C81.7705 88.972 81.7705 88.9704 81.7705 88.9689C81.7705 88.9673 81.7705 88.9657 81.7705 88.9642C81.7705 88.9626 81.7705 88.961 81.7705 88.9594C81.7705 88.9579 81.7705 88.9563 81.7705 88.9547C81.7705 88.9531 81.7705 88.9516 81.7705 88.95C81.7705 88.9484 81.7705 88.9468 81.7705 88.9452C81.7705 88.9437 81.7705 88.9421 81.7705 88.9405C81.7705 88.9389 81.7705 88.9373 81.7705 88.9358C81.7705 88.9342 81.7705 88.9326 81.7705 88.931C81.7705 88.9294 81.7705 88.9278 81.7705 88.9262C81.7705 88.9247 81.7705 88.9231 81.7705 88.9215C81.7705 88.9199 81.7705 88.9183 81.7705 88.9167C81.7705 88.9151 81.7705 88.9135 81.7705 88.9119C81.7705 88.9103 81.7705 88.9087 81.7705 88.9071C81.7705 88.9055 81.7705 88.9039 81.7705 88.9023C81.7705 88.9008 81.7705 88.8992 81.7705 88.8976C81.7705 88.896 81.7705 88.8944 81.7705 88.8928C81.7705 88.8912 81.7705 88.8895 81.7705 88.8879C81.7705 88.8863 81.7705 88.8847 81.7705 88.8831C81.7705 88.8815 81.7705 88.8799 81.7705 88.8783C81.7705 88.8767 81.7705 88.8751 81.7705 88.8735C81.7705 88.8719 81.7705 88.8703 81.7705 88.8687C81.7705 88.8671 81.7705 88.8654 81.7705 88.8638C81.7705 88.8622 81.7705 88.8606 81.7705 88.859C81.7705 88.8574 81.7705 88.8558 81.7705 88.8541C81.7705 88.8525 81.7705 88.8509 81.7705 88.8493C81.7705 88.8477 81.7705 88.846 81.7705 88.8444C81.7705 88.8428 81.7705 88.8412 81.7705 88.8396C81.7705 88.8379 81.7705 88.8363 81.7705 88.8347C81.7705 88.8331 81.7705 88.8314 81.7705 88.8298C81.7705 88.8282 81.7705 88.8266 81.7705 88.8249C81.7705 88.8233 81.7705 88.8217 81.7705 88.82C81.7705 88.8184 81.7705 88.8168 81.7705 88.8152C81.7705 88.8135 81.7705 88.8119 81.7705 88.8103C81.7705 88.8086 81.7705 88.807 81.7705 88.8053C81.7705 88.8037 81.7705 88.8021 81.7705 88.8004C81.7705 88.7988 81.7705 88.7972 81.7705 88.7955C81.7705 88.7939 81.7705 88.7922 81.7705 88.7906C81.7705 88.789 81.7705 88.7873 81.7705 88.7857C81.7705 88.784 81.7705 88.7824 81.7705 88.7807C81.7705 88.7791 81.7705 88.7774 81.7705 88.7758C81.7705 88.7741 81.7705 88.7725 81.7705 88.7709C81.7705 88.7692 81.7705 88.7676 81.7705 88.7659C81.7705 88.7642 81.7705 88.7626 81.7705 88.7609C81.7705 88.7593 81.7705 88.7576 81.7705 88.756C81.7705 88.7543 81.7705 88.7527 81.7705 88.751C81.7705 88.7494 81.7705 88.7477 81.7705 88.746C81.7705 88.7444 81.7705 88.7427 81.7705 88.7411C81.7705 88.7394 81.7705 88.7377 81.7705 88.7361C81.7705 88.7344 81.7705 88.7327 81.7705 88.7311C81.7705 88.7294 81.7705 88.7278 81.7705 88.7261C81.7705 88.7244 81.7705 88.7228 81.7705 88.7211C81.7705 88.7194 81.7705 88.7177 81.7705 88.7161C81.7705 88.7144 81.7705 88.7127 81.7705 88.7111C81.7705 88.7094 81.7705 88.7077 81.7705 88.706C81.7705 88.7044 81.7705 88.7027 81.7705 88.701C81.7705 88.6993 81.7705 88.6977 81.7705 88.696C81.7705 88.6943 81.7705 88.6926 81.7705 88.6909C81.7705 88.6893 81.7705 88.6876 81.7705 88.6859C81.7705 88.6842 81.7705 88.6825 81.7705 88.6809C81.7705 88.6792 81.7705 88.6775 81.7705 88.6758C81.7705 88.6741 81.7705 88.6724 81.7705 88.6707C81.7705 88.669 81.7705 88.6674 81.7705 88.6657C81.7705 88.664 81.7705 88.6623 81.7705 88.6606C81.7705 88.6589 81.7705 88.6572 81.7705 88.6555C81.7705 88.6538 81.7705 88.6521 81.7705 88.6504C81.7705 88.6487 81.7705 88.647 81.7705 88.6453C81.7705 88.6436 81.7705 88.6419 81.7705 88.6403C81.7705 88.6386 81.7705 88.6369 81.7705 88.6351C81.7705 88.6334 81.7705 88.6317 81.7705 88.63C81.7705 88.6283 81.7705 88.6266 81.7705 88.6249C81.7705 88.6232 81.7705 88.6215 81.7705 88.6198C81.7705 88.6181 81.7705 88.6164 81.7705 88.6147C81.7705 88.613 81.7705 88.6113 81.7705 88.6096C81.7705 88.6078 81.7705 88.6061 81.7705 88.6044C81.7705 88.6027 81.7705 88.601 81.7705 88.5993C81.7705 88.5976 81.7705 88.5959 81.7705 88.5941C81.7705 88.5924 81.7705 88.5907 81.7705 88.589C81.7705 88.5873 81.7705 88.5855 81.7705 88.5838C81.7705 88.5821 81.7705 88.5804 81.7705 88.5787C81.7705 88.5769 81.7705 88.5752 81.7705 88.5735C81.7705 88.5718 81.7705 88.57 81.7705 88.5683C81.7705 88.5666 81.7705 88.5649 81.7705 88.5631C81.7705 88.5614 81.7705 88.5597 81.7705 88.5579C81.7705 88.5562 81.7705 88.5545 81.7705 88.5527C81.7705 88.551 81.7705 88.5493 81.7705 88.5475C81.7705 88.5458 81.7705 88.5441 81.7705 88.5423C81.7705 88.5406 81.7705 88.5389 81.7705 88.5371C81.7705 88.5354 81.7705 88.5337 81.7705 88.5319C81.7705 88.5302 81.7705 88.5284 81.7705 88.5267C81.7705 88.525 81.7705 88.5232 81.7705 88.5215C81.7705 88.5197 81.7705 88.518 81.7705 88.5162C81.7705 88.5145 81.7705 88.5127 81.7705 88.511C81.7705 88.5092 81.7705 88.5075 81.7705 88.5057C81.7705 88.504 81.7705 88.5022 81.7705 88.5005C81.7705 88.4987 81.7705 88.497 81.7705 88.4952C81.7705 88.4935 81.7705 88.4917 81.7705 88.49C81.7705 88.4882 81.7705 88.4865 81.7705 88.4847C81.7705 88.483 81.7705 88.4812 81.7705 88.4794C81.7705 88.4777 81.7705 88.4759 81.7705 88.4742C81.7705 88.4724 81.7705 88.4706 81.7705 88.4689C81.7705 88.4671 81.7705 88.4653 81.7705 88.4636C81.7705 88.4618 81.7705 88.46 81.7705 88.4583C81.7705 88.4565 81.7705 88.4547 81.7705 88.453C81.7705 88.4512 81.7705 88.4494 81.7705 88.4477C81.7705 88.4459 81.7705 88.4441 81.7705 88.4424C81.7705 88.4406 81.7705 88.4388 81.7705 88.437C81.7705 88.4353 81.7705 88.4335 81.7705 88.4317C81.7705 88.4299 81.7705 88.4282 81.7705 88.4264C81.7705 88.4246 81.7705 88.4228 81.7705 88.421C81.7705 88.4193 81.7705 88.4175 81.7705 88.4157C81.7705 88.4139 81.7705 88.4121 81.7705 88.4103C81.7705 88.4086 81.7705 88.4068 81.7705 88.405C81.7705 88.4032 81.7705 88.4014 81.7705 88.3996C81.7705 88.3978 81.7705 88.3961 81.7705 88.3943C81.7705 88.3925 81.7705 88.3907 81.7705 88.3889C81.7705 88.3871 81.7705 88.3853 81.7705 88.3835C81.7705 88.3817 81.7705 88.3799 81.7705 88.3781C81.7705 88.3763 81.7705 88.3745 81.7705 88.3727C81.7705 88.3709 81.7705 88.3691 81.7705 88.3674C81.7705 88.3656 81.7705 88.3638 81.7705 88.3619C81.7705 88.3601 81.7705 88.3583 81.7705 88.3565C81.7705 88.3547 81.7705 88.3529 81.7705 88.3511C81.7705 88.3493 81.7705 88.3475 81.7705 88.3457C81.7705 88.3439 81.7705 88.3421 81.7705 88.3403C81.7705 88.3385 81.7705 88.3367 81.7705 88.3349C81.7705 88.333 81.7705 88.3312 81.7705 88.3294C81.7705 88.3276 81.7705 88.3258 81.7705 88.324C81.7705 88.3222 81.7705 88.3204 81.7705 88.3185C81.7705 88.3167 81.7705 88.3149 81.7705 88.3131C81.7705 88.3113 81.7705 88.3094 81.7705 88.3076C81.7705 88.3058 81.7705 88.304 81.7705 88.3022C81.7705 88.3003 81.7705 88.2985 81.7705 88.2967C81.7705 88.2949 81.7705 88.293 81.7705 88.2912C81.7705 88.2894 81.7705 88.2876 81.7705 88.2857C81.7705 88.2839 81.7705 88.2821 81.7705 88.2802C81.7705 88.2784 81.7705 88.2766 81.7705 88.2747C81.7705 88.2729 81.7705 88.2711 81.7705 88.2693C81.7705 88.2674 81.7705 88.2656 81.7705 88.2637C81.7705 88.2619 81.7705 88.2601 81.7705 88.2582C81.7705 88.2564 81.7705 88.2546 81.7705 88.2527C81.7705 88.2509 81.7705 88.249 81.7705 88.2472C81.7705 88.2454 81.7705 88.2435 81.7705 88.2417C81.7705 88.2398 81.7705 88.238 81.7705 88.2361C81.7705 88.2343 81.7705 88.2324 81.7705 88.2306C81.7705 88.2287 81.7705 88.2269 81.7705 88.2251C81.7705 88.2232 81.7705 88.2214 81.7705 88.2195C81.7705 88.2176 81.7705 88.2158 81.7705 88.2139C81.7705 88.2121 81.7705 88.2102 81.7705 88.2084C81.7705 88.2065 81.7705 88.2047 81.7705 88.2028C81.7705 88.201 81.7705 88.1991 81.7705 88.1972C81.7705 88.1954 81.7705 88.1935 81.7705 88.1917C81.7705 88.1898 81.7705 88.1879 81.7705 88.1861C81.7705 88.1842 81.7705 88.1823 81.7705 88.1805C81.7705 88.1786 81.7705 88.1768 81.7705 88.1749C81.7705 88.173 81.7705 88.1712 81.7705 88.1693C81.7705 88.1674 81.7705 88.1655 81.7705 88.1637C81.7705 88.1618 81.7705 88.1599 81.7705 88.1581C81.7705 88.1562 81.7705 88.1543 81.7705 88.1524C81.7705 88.1506 81.7705 88.1487 81.7705 88.1468C81.7705 88.1449 81.7705 88.1431 81.7705 88.1412C81.7705 88.1393 81.7705 88.1374 81.7705 88.1355C81.7705 88.1337 81.7705 88.1318 81.7705 88.1299C81.7705 88.128 81.7705 88.1261 81.7705 88.1243C81.7705 88.1224 81.7705 88.1205 81.7705 88.1186C81.7705 88.1167 81.7705 88.1148 81.7705 88.1129C81.7705 88.1111 81.7705 88.1092 81.7705 88.1073C81.7705 88.1054 81.7705 88.1035 81.7705 88.1016C81.7705 88.0997 81.7705 88.0978 81.7705 88.0959C81.7705 88.094 81.7705 88.0921 81.7705 88.0902C81.7705 88.0883 81.7705 88.0864 81.7705 88.0845C81.7705 88.0827 81.7705 88.0808 81.7705 88.0789C81.7705 88.077 81.7705 88.0751 81.7705 88.0732C81.7705 88.0713 81.7705 88.0693 81.7705 88.0674C81.7705 88.0655 81.7705 88.0636 81.7705 88.0617C81.7705 88.0598 81.7705 88.0579 81.7705 88.056C81.7705 88.0541 81.7705 88.0522 81.7705 88.0503C81.7705 88.0484 81.7705 88.0465 81.7705 88.0446C81.7705 88.0427 81.7705 88.0407 81.7705 88.0388C81.7705 88.0369 81.7705 88.035 81.7705 88.0331C81.7705 88.0312 81.7705 88.0293 81.7705 88.0273C81.7705 88.0254 81.7705 88.0235 81.7705 88.0216C81.7705 88.0197 81.7705 88.0177 81.7705 88.0158C81.7705 88.0139 81.7705 88.012 81.7705 88.0101C81.7705 88.0081 81.7705 88.0062 81.7705 88.0043C81.7705 88.0024 81.7705 88.0004 81.7705 87.9985C81.7705 87.9966 81.7705 87.9947 81.7705 87.9927C81.7705 87.9908 81.7705 87.9889 81.7705 87.9869C81.7705 87.985 81.7705 87.9831 81.7705 87.9812C81.7705 87.9792 81.7705 87.9773 81.7705 87.9754C81.7705 87.9734 81.7705 87.9715 81.7705 87.9696C81.7705 87.9676 81.7705 87.9657 81.7705 87.9637C81.7705 87.9618 81.7705 87.9599 81.7705 87.9579C81.7705 87.956 81.7705 87.954 81.7705 87.9521C81.7705 87.9502 81.7705 87.9482 81.7705 87.9463C81.7705 87.9443 81.7705 87.9424 81.7705 87.9404C81.7705 87.9385 81.7705 87.9365 81.7705 87.9346C81.7705 87.9327 81.7705 87.9307 81.7705 87.9288C81.7705 87.9268 81.7705 87.9249 81.7705 87.9229C81.7705 87.921 81.7705 87.919 81.7705 87.917C81.7705 87.9151 81.7705 87.9131 81.7705 87.9112C81.7705 87.9092 81.7705 87.9073 81.7705 87.9053C81.7705 87.9034 81.7705 87.9014 81.7705 87.8994C81.7705 87.8975 81.7705 87.8955 81.7705 87.8936C81.7705 87.8916 81.7705 87.8896 81.7705 87.8877C81.7705 87.8857 81.7705 87.8838 81.7705 87.8818C81.7705 87.8798 81.7705 87.8779 81.7705 87.8759C81.7705 87.8739 81.7705 87.872 81.7705 87.87C81.7705 87.868 81.7705 87.8661 81.7705 87.8641C81.7705 87.8621 81.7705 87.8601 81.7705 87.8582C81.7705 87.8562 81.7705 87.8542 81.7705 87.8522C81.7705 87.8503 81.7705 87.8483 81.7705 87.8463C81.7705 87.8443 81.7705 87.8424 81.7705 87.8404C81.7705 87.8384 81.7705 87.8364 81.7705 87.8345C81.7705 87.8325 81.7705 87.8305 81.7705 87.8285C81.7705 87.8265 81.7705 87.8245 81.7705 87.8226C81.7705 87.8206 81.7705 87.8186 81.7705 87.8166C81.7705 87.8146 81.7705 87.8126 81.7705 87.8106C81.7705 87.8087 81.7705 87.8067 81.7705 87.8047C81.7705 87.8027 81.7705 87.8007 81.7705 87.7987C81.7705 87.7967 81.7705 87.7947 81.7705 87.7927C81.7705 87.7907 81.7705 87.7887 81.7705 87.7867C81.7705 87.7848 81.7705 87.7828 81.7705 87.7808C81.7705 87.7788 81.7705 87.7768 81.7705 87.7748C81.7705 87.7728 81.7705 87.7708 81.7705 87.7688C81.7705 87.7668 81.7705 87.7648 81.7705 87.7628C81.7705 87.7608 81.7705 87.7587 81.7705 87.7567C81.7705 87.7547 81.7705 87.7527 81.7705 87.7507C81.7705 87.7487 81.7705 87.7467 81.7705 87.7447C81.7705 87.7427 81.7705 87.7407 81.7705 87.7387C81.7705 87.7367 81.7705 87.7346 81.7705 87.7326C81.7705 87.7306 81.7705 87.7286 81.7705 87.7266C81.7705 87.7246 81.7705 87.7226 81.7705 87.7205C81.7705 87.7185 81.7705 87.7165 81.7705 87.7145C81.7705 87.7125 81.7705 87.7105 81.7705 87.7084C81.7705 87.7064 81.7705 87.7044 81.7705 87.7024C81.7705 87.7003 81.7705 87.6983 81.7705 87.6963C81.7705 87.6943 81.7705 87.6923 81.7705 87.6902C81.7705 87.6882 81.7705 87.6862 81.7705 87.6841C81.7705 87.6821 81.7705 87.6801 81.7705 87.6781C81.7705 87.676 81.7705 87.674 81.7705 87.672C81.7705 87.6699 81.7705 87.6679 81.7705 87.6659C81.7705 87.6638 81.7705 87.6618 81.7705 87.6598C81.7705 87.6577 81.7705 87.6557 81.7705 87.6536C81.7705 87.6516 81.7705 87.6496 81.7705 87.6475C81.7705 87.6455 81.7705 87.6435 81.7705 87.6414C81.7705 87.6394 81.7705 87.6373 81.7705 87.6353C81.7705 87.6332 81.7705 87.6312 81.7705 87.6292C81.7705 87.6271 81.7705 87.6251 81.7705 87.623C81.7705 87.621 81.7705 87.6189 81.7705 87.6169C81.7705 87.6148 81.7705 87.6128 81.7705 87.6107C81.7705 87.6087 81.7705 87.6066 81.7705 87.6046C81.7705 87.6025 81.7705 87.6005 81.7705 87.5984C81.7705 87.5963 81.7705 87.5943 81.7705 87.5922C81.7705 87.5902 81.7705 87.5881 81.7705 87.5861C81.7705 87.584 81.7705 87.5819 81.7705 87.5799C81.7705 87.5778 81.7705 87.5758 81.7705 87.5737C81.7705 87.5716 81.7705 87.5696 81.7705 87.5675C81.7705 87.5654 81.7705 87.5634 81.7705 87.5613C81.7705 87.5592 81.7705 87.5572 81.7705 87.5551C81.7705 87.553 81.7705 87.551 81.7705 87.5489C81.7705 87.5468 81.7705 87.5447 81.7705 87.5427C81.7705 87.5406 81.7705 87.5385 81.7705 87.5365C81.7705 87.5344 81.7705 87.5323 81.7705 87.5302C81.7705 87.5282 81.7705 87.5261 81.7705 87.524H75.7705C75.7705 87.5261 75.7705 87.5282 75.7705 87.5302C75.7705 87.5323 75.7705 87.5344 75.7705 87.5365C75.7705 87.5385 75.7705 87.5406 75.7705 87.5427C75.7705 87.5447 75.7705 87.5468 75.7705 87.5489C75.7705 87.551 75.7705 87.553 75.7705 87.5551C75.7705 87.5572 75.7705 87.5592 75.7705 87.5613C75.7705 87.5634 75.7705 87.5654 75.7705 87.5675C75.7705 87.5696 75.7705 87.5716 75.7705 87.5737C75.7705 87.5758 75.7705 87.5778 75.7705 87.5799C75.7705 87.5819 75.7705 87.584 75.7705 87.5861C75.7705 87.5881 75.7705 87.5902 75.7705 87.5922C75.7705 87.5943 75.7705 87.5963 75.7705 87.5984C75.7705 87.6005 75.7705 87.6025 75.7705 87.6046C75.7705 87.6066 75.7705 87.6087 75.7705 87.6107C75.7705 87.6128 75.7705 87.6148 75.7705 87.6169C75.7705 87.6189 75.7705 87.621 75.7705 87.623C75.7705 87.6251 75.7705 87.6271 75.7705 87.6292C75.7705 87.6312 75.7705 87.6332 75.7705 87.6353C75.7705 87.6373 75.7705 87.6394 75.7705 87.6414C75.7705 87.6435 75.7705 87.6455 75.7705 87.6475C75.7705 87.6496 75.7705 87.6516 75.7705 87.6536C75.7705 87.6557 75.7705 87.6577 75.7705 87.6598C75.7705 87.6618 75.7705 87.6638 75.7705 87.6659C75.7705 87.6679 75.7705 87.6699 75.7705 87.672C75.7705 87.674 75.7705 87.676 75.7705 87.6781C75.7705 87.6801 75.7705 87.6821 75.7705 87.6841C75.7705 87.6862 75.7705 87.6882 75.7705 87.6902C75.7705 87.6923 75.7705 87.6943 75.7705 87.6963C75.7705 87.6983 75.7705 87.7003 75.7705 87.7024C75.7705 87.7044 75.7705 87.7064 75.7705 87.7084C75.7705 87.7105 75.7705 87.7125 75.7705 87.7145C75.7705 87.7165 75.7705 87.7185 75.7705 87.7205C75.7705 87.7226 75.7705 87.7246 75.7705 87.7266C75.7705 87.7286 75.7705 87.7306 75.7705 87.7326C75.7705 87.7346 75.7705 87.7367 75.7705 87.7387C75.7705 87.7407 75.7705 87.7427 75.7705 87.7447C75.7705 87.7467 75.7705 87.7487 75.7705 87.7507C75.7705 87.7527 75.7705 87.7547 75.7705 87.7567C75.7705 87.7587 75.7705 87.7608 75.7705 87.7628C75.7705 87.7648 75.7705 87.7668 75.7705 87.7688C75.7705 87.7708 75.7705 87.7728 75.7705 87.7748C75.7705 87.7768 75.7705 87.7788 75.7705 87.7808C75.7705 87.7828 75.7705 87.7848 75.7705 87.7867C75.7705 87.7887 75.7705 87.7907 75.7705 87.7927C75.7705 87.7947 75.7705 87.7967 75.7705 87.7987C75.7705 87.8007 75.7705 87.8027 75.7705 87.8047C75.7705 87.8067 75.7705 87.8087 75.7705 87.8106C75.7705 87.8126 75.7705 87.8146 75.7705 87.8166C75.7705 87.8186 75.7705 87.8206 75.7705 87.8226C75.7705 87.8245 75.7705 87.8265 75.7705 87.8285C75.7705 87.8305 75.7705 87.8325 75.7705 87.8345C75.7705 87.8364 75.7705 87.8384 75.7705 87.8404C75.7705 87.8424 75.7705 87.8443 75.7705 87.8463C75.7705 87.8483 75.7705 87.8503 75.7705 87.8522C75.7705 87.8542 75.7705 87.8562 75.7705 87.8582C75.7705 87.8601 75.7705 87.8621 75.7705 87.8641C75.7705 87.8661 75.7705 87.868 75.7705 87.87C75.7705 87.872 75.7705 87.8739 75.7705 87.8759C75.7705 87.8779 75.7705 87.8798 75.7705 87.8818C75.7705 87.8838 75.7705 87.8857 75.7705 87.8877C75.7705 87.8896 75.7705 87.8916 75.7705 87.8936C75.7705 87.8955 75.7705 87.8975 75.7705 87.8994C75.7705 87.9014 75.7705 87.9034 75.7705 87.9053C75.7705 87.9073 75.7705 87.9092 75.7705 87.9112C75.7705 87.9131 75.7705 87.9151 75.7705 87.917C75.7705 87.919 75.7705 87.921 75.7705 87.9229C75.7705 87.9249 75.7705 87.9268 75.7705 87.9288C75.7705 87.9307 75.7705 87.9327 75.7705 87.9346C75.7705 87.9365 75.7705 87.9385 75.7705 87.9404C75.7705 87.9424 75.7705 87.9443 75.7705 87.9463C75.7705 87.9482 75.7705 87.9502 75.7705 87.9521C75.7705 87.954 75.7705 87.956 75.7705 87.9579C75.7705 87.9599 75.7705 87.9618 75.7705 87.9637C75.7705 87.9657 75.7705 87.9676 75.7705 87.9696C75.7705 87.9715 75.7705 87.9734 75.7705 87.9754C75.7705 87.9773 75.7705 87.9792 75.7705 87.9812C75.7705 87.9831 75.7705 87.985 75.7705 87.9869C75.7705 87.9889 75.7705 87.9908 75.7705 87.9927C75.7705 87.9947 75.7705 87.9966 75.7705 87.9985C75.7705 88.0004 75.7705 88.0024 75.7705 88.0043C75.7705 88.0062 75.7705 88.0081 75.7705 88.0101C75.7705 88.012 75.7705 88.0139 75.7705 88.0158C75.7705 88.0177 75.7705 88.0197 75.7705 88.0216C75.7705 88.0235 75.7705 88.0254 75.7705 88.0273C75.7705 88.0293 75.7705 88.0312 75.7705 88.0331C75.7705 88.035 75.7705 88.0369 75.7705 88.0388C75.7705 88.0407 75.7705 88.0427 75.7705 88.0446C75.7705 88.0465 75.7705 88.0484 75.7705 88.0503C75.7705 88.0522 75.7705 88.0541 75.7705 88.056C75.7705 88.0579 75.7705 88.0598 75.7705 88.0617C75.7705 88.0636 75.7705 88.0655 75.7705 88.0674C75.7705 88.0693 75.7705 88.0713 75.7705 88.0732C75.7705 88.0751 75.7705 88.077 75.7705 88.0789C75.7705 88.0808 75.7705 88.0827 75.7705 88.0845C75.7705 88.0864 75.7705 88.0883 75.7705 88.0902C75.7705 88.0921 75.7705 88.094 75.7705 88.0959C75.7705 88.0978 75.7705 88.0997 75.7705 88.1016C75.7705 88.1035 75.7705 88.1054 75.7705 88.1073C75.7705 88.1092 75.7705 88.1111 75.7705 88.1129C75.7705 88.1148 75.7705 88.1167 75.7705 88.1186C75.7705 88.1205 75.7705 88.1224 75.7705 88.1243C75.7705 88.1261 75.7705 88.128 75.7705 88.1299C75.7705 88.1318 75.7705 88.1337 75.7705 88.1355C75.7705 88.1374 75.7705 88.1393 75.7705 88.1412C75.7705 88.1431 75.7705 88.1449 75.7705 88.1468C75.7705 88.1487 75.7705 88.1506 75.7705 88.1524C75.7705 88.1543 75.7705 88.1562 75.7705 88.1581C75.7705 88.1599 75.7705 88.1618 75.7705 88.1637C75.7705 88.1655 75.7705 88.1674 75.7705 88.1693C75.7705 88.1712 75.7705 88.173 75.7705 88.1749C75.7705 88.1768 75.7705 88.1786 75.7705 88.1805C75.7705 88.1823 75.7705 88.1842 75.7705 88.1861C75.7705 88.1879 75.7705 88.1898 75.7705 88.1917C75.7705 88.1935 75.7705 88.1954 75.7705 88.1972C75.7705 88.1991 75.7705 88.201 75.7705 88.2028C75.7705 88.2047 75.7705 88.2065 75.7705 88.2084C75.7705 88.2102 75.7705 88.2121 75.7705 88.2139C75.7705 88.2158 75.7705 88.2176 75.7705 88.2195C75.7705 88.2214 75.7705 88.2232 75.7705 88.2251C75.7705 88.2269 75.7705 88.2287 75.7705 88.2306C75.7705 88.2324 75.7705 88.2343 75.7705 88.2361C75.7705 88.238 75.7705 88.2398 75.7705 88.2417C75.7705 88.2435 75.7705 88.2454 75.7705 88.2472C75.7705 88.249 75.7705 88.2509 75.7705 88.2527C75.7705 88.2546 75.7705 88.2564 75.7705 88.2582C75.7705 88.2601 75.7705 88.2619 75.7705 88.2637C75.7705 88.2656 75.7705 88.2674 75.7705 88.2693C75.7705 88.2711 75.7705 88.2729 75.7705 88.2747C75.7705 88.2766 75.7705 88.2784 75.7705 88.2802C75.7705 88.2821 75.7705 88.2839 75.7705 88.2857C75.7705 88.2876 75.7705 88.2894 75.7705 88.2912C75.7705 88.293 75.7705 88.2949 75.7705 88.2967C75.7705 88.2985 75.7705 88.3003 75.7705 88.3022C75.7705 88.304 75.7705 88.3058 75.7705 88.3076C75.7705 88.3094 75.7705 88.3113 75.7705 88.3131C75.7705 88.3149 75.7705 88.3167 75.7705 88.3185C75.7705 88.3204 75.7705 88.3222 75.7705 88.324C75.7705 88.3258 75.7705 88.3276 75.7705 88.3294C75.7705 88.3312 75.7705 88.333 75.7705 88.3349C75.7705 88.3367 75.7705 88.3385 75.7705 88.3403C75.7705 88.3421 75.7705 88.3439 75.7705 88.3457C75.7705 88.3475 75.7705 88.3493 75.7705 88.3511C75.7705 88.3529 75.7705 88.3547 75.7705 88.3565C75.7705 88.3583 75.7705 88.3601 75.7705 88.3619C75.7705 88.3638 75.7705 88.3656 75.7705 88.3674C75.7705 88.3691 75.7705 88.3709 75.7705 88.3727C75.7705 88.3745 75.7705 88.3763 75.7705 88.3781C75.7705 88.3799 75.7705 88.3817 75.7705 88.3835C75.7705 88.3853 75.7705 88.3871 75.7705 88.3889C75.7705 88.3907 75.7705 88.3925 75.7705 88.3943C75.7705 88.3961 75.7705 88.3978 75.7705 88.3996C75.7705 88.4014 75.7705 88.4032 75.7705 88.405C75.7705 88.4068 75.7705 88.4086 75.7705 88.4103C75.7705 88.4121 75.7705 88.4139 75.7705 88.4157C75.7705 88.4175 75.7705 88.4193 75.7705 88.421C75.7705 88.4228 75.7705 88.4246 75.7705 88.4264C75.7705 88.4282 75.7705 88.4299 75.7705 88.4317C75.7705 88.4335 75.7705 88.4353 75.7705 88.437C75.7705 88.4388 75.7705 88.4406 75.7705 88.4424C75.7705 88.4441 75.7705 88.4459 75.7705 88.4477C75.7705 88.4494 75.7705 88.4512 75.7705 88.453C75.7705 88.4547 75.7705 88.4565 75.7705 88.4583C75.7705 88.46 75.7705 88.4618 75.7705 88.4636C75.7705 88.4653 75.7705 88.4671 75.7705 88.4689C75.7705 88.4706 75.7705 88.4724 75.7705 88.4742C75.7705 88.4759 75.7705 88.4777 75.7705 88.4794C75.7705 88.4812 75.7705 88.483 75.7705 88.4847C75.7705 88.4865 75.7705 88.4882 75.7705 88.49C75.7705 88.4917 75.7705 88.4935 75.7705 88.4952C75.7705 88.497 75.7705 88.4987 75.7705 88.5005C75.7705 88.5022 75.7705 88.504 75.7705 88.5057C75.7705 88.5075 75.7705 88.5092 75.7705 88.511C75.7705 88.5127 75.7705 88.5145 75.7705 88.5162C75.7705 88.518 75.7705 88.5197 75.7705 88.5215C75.7705 88.5232 75.7705 88.525 75.7705 88.5267C75.7705 88.5284 75.7705 88.5302 75.7705 88.5319C75.7705 88.5337 75.7705 88.5354 75.7705 88.5371C75.7705 88.5389 75.7705 88.5406 75.7705 88.5423C75.7705 88.5441 75.7705 88.5458 75.7705 88.5475C75.7705 88.5493 75.7705 88.551 75.7705 88.5527C75.7705 88.5545 75.7705 88.5562 75.7705 88.5579C75.7705 88.5597 75.7705 88.5614 75.7705 88.5631C75.7705 88.5649 75.7705 88.5666 75.7705 88.5683C75.7705 88.57 75.7705 88.5718 75.7705 88.5735C75.7705 88.5752 75.7705 88.5769 75.7705 88.5787C75.7705 88.5804 75.7705 88.5821 75.7705 88.5838C75.7705 88.5855 75.7705 88.5873 75.7705 88.589C75.7705 88.5907 75.7705 88.5924 75.7705 88.5941C75.7705 88.5959 75.7705 88.5976 75.7705 88.5993C75.7705 88.601 75.7705 88.6027 75.7705 88.6044C75.7705 88.6061 75.7705 88.6078 75.7705 88.6096C75.7705 88.6113 75.7705 88.613 75.7705 88.6147C75.7705 88.6164 75.7705 88.6181 75.7705 88.6198C75.7705 88.6215 75.7705 88.6232 75.7705 88.6249C75.7705 88.6266 75.7705 88.6283 75.7705 88.63C75.7705 88.6317 75.7705 88.6334 75.7705 88.6351C75.7705 88.6369 75.7705 88.6386 75.7705 88.6403C75.7705 88.6419 75.7705 88.6436 75.7705 88.6453C75.7705 88.647 75.7705 88.6487 75.7705 88.6504C75.7705 88.6521 75.7705 88.6538 75.7705 88.6555C75.7705 88.6572 75.7705 88.6589 75.7705 88.6606C75.7705 88.6623 75.7705 88.664 75.7705 88.6657C75.7705 88.6674 75.7705 88.669 75.7705 88.6707C75.7705 88.6724 75.7705 88.6741 75.7705 88.6758C75.7705 88.6775 75.7705 88.6792 75.7705 88.6809C75.7705 88.6825 75.7705 88.6842 75.7705 88.6859C75.7705 88.6876 75.7705 88.6893 75.7705 88.6909C75.7705 88.6926 75.7705 88.6943 75.7705 88.696C75.7705 88.6977 75.7705 88.6993 75.7705 88.701C75.7705 88.7027 75.7705 88.7044 75.7705 88.706C75.7705 88.7077 75.7705 88.7094 75.7705 88.7111C75.7705 88.7127 75.7705 88.7144 75.7705 88.7161C75.7705 88.7177 75.7705 88.7194 75.7705 88.7211C75.7705 88.7228 75.7705 88.7244 75.7705 88.7261C75.7705 88.7278 75.7705 88.7294 75.7705 88.7311C75.7705 88.7327 75.7705 88.7344 75.7705 88.7361C75.7705 88.7377 75.7705 88.7394 75.7705 88.7411C75.7705 88.7427 75.7705 88.7444 75.7705 88.746C75.7705 88.7477 75.7705 88.7494 75.7705 88.751C75.7705 88.7527 75.7705 88.7543 75.7705 88.756C75.7705 88.7576 75.7705 88.7593 75.7705 88.7609C75.7705 88.7626 75.7705 88.7642 75.7705 88.7659C75.7705 88.7676 75.7705 88.7692 75.7705 88.7709C75.7705 88.7725 75.7705 88.7741 75.7705 88.7758C75.7705 88.7774 75.7705 88.7791 75.7705 88.7807C75.7705 88.7824 75.7705 88.784 75.7705 88.7857C75.7705 88.7873 75.7705 88.789 75.7705 88.7906C75.7705 88.7922 75.7705 88.7939 75.7705 88.7955C75.7705 88.7972 75.7705 88.7988 75.7705 88.8004C75.7705 88.8021 75.7705 88.8037 75.7705 88.8053C75.7705 88.807 75.7705 88.8086 75.7705 88.8103C75.7705 88.8119 75.7705 88.8135 75.7705 88.8152C75.7705 88.8168 75.7705 88.8184 75.7705 88.82C75.7705 88.8217 75.7705 88.8233 75.7705 88.8249C75.7705 88.8266 75.7705 88.8282 75.7705 88.8298C75.7705 88.8314 75.7705 88.8331 75.7705 88.8347C75.7705 88.8363 75.7705 88.8379 75.7705 88.8396C75.7705 88.8412 75.7705 88.8428 75.7705 88.8444C75.7705 88.846 75.7705 88.8477 75.7705 88.8493C75.7705 88.8509 75.7705 88.8525 75.7705 88.8541C75.7705 88.8558 75.7705 88.8574 75.7705 88.859C75.7705 88.8606 75.7705 88.8622 75.7705 88.8638C75.7705 88.8654 75.7705 88.8671 75.7705 88.8687C75.7705 88.8703 75.7705 88.8719 75.7705 88.8735C75.7705 88.8751 75.7705 88.8767 75.7705 88.8783C75.7705 88.8799 75.7705 88.8815 75.7705 88.8831C75.7705 88.8847 75.7705 88.8863 75.7705 88.8879C75.7705 88.8895 75.7705 88.8912 75.7705 88.8928C75.7705 88.8944 75.7705 88.896 75.7705 88.8976C75.7705 88.8992 75.7705 88.9008 75.7705 88.9023C75.7705 88.9039 75.7705 88.9055 75.7705 88.9071C75.7705 88.9087 75.7705 88.9103 75.7705 88.9119C75.7705 88.9135 75.7705 88.9151 75.7705 88.9167C75.7705 88.9183 75.7705 88.9199 75.7705 88.9215C75.7705 88.9231 75.7705 88.9247 75.7705 88.9262C75.7705 88.9278 75.7705 88.9294 75.7705 88.931C75.7705 88.9326 75.7705 88.9342 75.7705 88.9358C75.7705 88.9373 75.7705 88.9389 75.7705 88.9405C75.7705 88.9421 75.7705 88.9437 75.7705 88.9452C75.7705 88.9468 75.7705 88.9484 75.7705 88.95C75.7705 88.9516 75.7705 88.9531 75.7705 88.9547C75.7705 88.9563 75.7705 88.9579 75.7705 88.9594C75.7705 88.961 75.7705 88.9626 75.7705 88.9642C75.7705 88.9657 75.7705 88.9673 75.7705 88.9689C75.7705 88.9704 75.7705 88.972 75.7705 88.9736C75.7705 88.9752 75.7705 88.9767 75.7705 88.9783C75.7705 88.9799 75.7705 88.9814 75.7705 88.983C75.7705 88.9846 75.7705 88.9861 75.7705 88.9877C75.7705 88.9892 75.7705 88.9908 75.7705 88.9924C75.7705 88.9939 75.7705 88.9955 75.7705 88.997C75.7705 88.9986 75.7705 89.0002 75.7705 89.0017C75.7705 89.0033 75.7705 89.0048 75.7705 89.0064C75.7705 89.0079 75.7705 89.0095 75.7705 89.011C75.7705 89.0126 75.7705 89.0142 75.7705 89.0157C75.7705 89.0173 75.7705 89.0188 75.7705 89.0204C75.7705 89.0219 75.7705 89.0235 75.7705 89.025C75.7705 89.0266 75.7705 89.0281 75.7705 89.0296C75.7705 89.0312 75.7705 89.0327 75.7705 89.0343C75.7705 89.0358 75.7705 89.0374 75.7705 89.0389C75.7705 89.0404 75.7705 89.042 75.7705 89.0435C75.7705 89.0451 75.7705 89.0466 75.7705 89.0481C75.7705 89.0497 75.7705 89.0512 75.7705 89.0528C75.7705 89.0543 75.7705 89.0558 75.7705 89.0574C75.7705 89.0589 75.7705 89.0604 75.7705 89.062C75.7705 89.0635 75.7705 89.065 75.7705 89.0666C75.7705 89.0681 75.7705 89.0696 75.7705 89.0711C75.7705 89.0727 75.7705 89.0742 75.7705 89.0757C75.7705 89.0772 75.7705 89.0788 75.7705 89.0803C75.7705 89.0818 75.7705 89.0833 75.7705 89.0849C75.7705 89.0864 75.7705 89.0879 75.7705 89.0894C75.7705 89.091 75.7705 89.0925 75.7705 89.094C75.7705 89.0955 75.7705 89.097 75.7705 89.0985C75.7705 89.1001 75.7705 89.1016 75.7705 89.1031C75.7705 89.1046 75.7705 89.1061 75.7705 89.1076C75.7705 89.1091 75.7705 89.1107 75.7705 89.1122C75.7705 89.1137 75.7705 89.1152 75.7705 89.1167C75.7705 89.1182 75.7705 89.1197 75.7705 89.1212C75.7705 89.1227 75.7705 89.1242 75.7705 89.1257C75.7705 89.1272 75.7705 89.1288 75.7705 89.1303C75.7705 89.1318 75.7705 89.1333 75.7705 89.1348C75.7705 89.1363 75.7705 89.1378 75.7705 89.1393C75.7705 89.1408 75.7705 89.1423 75.7705 89.1438C75.7705 89.1453 75.7705 89.1468 75.7705 89.1482C75.7705 89.1497 75.7705 89.1512 75.7705 89.1527C75.7705 89.1542 75.7705 89.1557 75.7705 89.1572C75.7705 89.1587 75.7705 89.1602 75.7705 89.1617C75.7705 89.1632 75.7705 89.1647 75.7705 89.1661C75.7705 89.1676 75.7705 89.1691 75.7705 89.1706C75.7705 89.1721 75.7705 89.1736 75.7705 89.1751C75.7705 89.1765 75.7705 89.178 75.7705 89.1795C75.7705 89.181 75.7705 89.1825 75.7705 89.184C75.7705 89.1854 75.7705 89.1869 75.7705 89.1884C75.7705 89.1899 75.7705 89.1913 75.7705 89.1928C75.7705 89.1943 75.7705 89.1958 75.7705 89.1973C75.7705 89.1987 75.7705 89.2002 75.7705 89.2017C75.7705 89.2031 75.7705 89.2046 75.7705 89.2061C75.7705 89.2076 75.7705 89.209 75.7705 89.2105C75.7705 89.212 75.7705 89.2134 75.7705 89.2149C75.7705 89.2164 75.7705 89.2178 75.7705 89.2193C75.7705 89.2208 75.7705 89.2222 75.7705 89.2237C75.7705 89.2252 75.7705 89.2266 75.7705 89.2281C75.7705 89.2295 75.7705 89.231 75.7705 89.2325C75.7705 89.2339 75.7705 89.2354 75.7705 89.2368C75.7705 89.2383 75.7705 89.2397 75.7705 89.2412C75.7705 89.2427 75.7705 89.2441 75.7705 89.2456C75.7705 89.247 75.7705 89.2485 75.7705 89.2499C75.7705 89.2514 75.7705 89.2528 75.7705 89.2543C75.7705 89.2557 75.7705 89.2572 75.7705 89.2586C75.7705 89.2601 75.7705 89.2615 75.7705 89.263C75.7705 89.2644 75.7705 89.2658 75.7705 89.2673C75.7705 89.2687 75.7705 89.2702 75.7705 89.2716C75.7705 89.2731 75.7705 89.2745 75.7705 89.2759C75.7705 89.2774 75.7705 89.2788 75.7705 89.2803C75.7705 89.2817 75.7705 89.2831 75.7705 89.2846C75.7705 89.286 75.7705 89.2874 75.7705 89.2889C75.7705 89.2903 75.7705 89.2917 75.7705 89.2932C75.7705 89.2946 75.7705 89.296 75.7705 89.2975C75.7705 89.2989 75.7705 89.3003 75.7705 89.3017C75.7705 89.3032 75.7705 89.3046 75.7705 89.306C75.7705 89.3075 75.7705 89.3089 75.7705 89.3103C75.7705 89.3117 75.7705 89.3132 75.7705 89.3146C75.7705 89.316 75.7705 89.3174 75.7705 89.3188C75.7705 89.3203 75.7705 89.3217 75.7705 89.3231C75.7705 89.3245 75.7705 89.3259 75.7705 89.3274C75.7705 89.3288 75.7705 89.3302 75.7705 89.3316C75.7705 89.333 75.7705 89.3344 75.7705 89.3358C75.7705 89.3373 75.7705 89.3387 75.7705 89.3401C75.7705 89.3415 75.7705 89.3429 75.7705 89.3443C75.7705 89.3457 75.7705 89.3471 75.7705 89.3485C75.7705 89.3499 75.7705 89.3513 75.7705 89.3528C75.7705 89.3542 75.7705 89.3556 75.7705 89.357C75.7705 89.3584 75.7705 89.3598 75.7705 89.3612C75.7705 89.3626 75.7705 89.364 75.7705 89.3654C75.7705 89.3668 75.7705 89.3682 75.7705 89.3696C75.7705 89.371 75.7705 89.3724 75.7705 89.3738C75.7705 89.3752 75.7705 89.3765 75.7705 89.3779C75.7705 89.3793 75.7705 89.3807 75.7705 89.3821C75.7705 89.3835 75.7705 89.3849 75.7705 89.3863C75.7705 89.3877 75.7705 89.3891 75.7705 89.3905C75.7705 89.3918 75.7705 89.3932 75.7705 89.3946C75.7705 89.396 75.7705 89.3974 75.7705 89.3988C75.7705 89.4002 75.7705 89.4015 75.7705 89.4029C75.7705 89.4043 75.7705 89.4057 75.7705 89.4071C75.7705 89.4084 75.7705 89.4098 75.7705 89.4112C75.7705 89.4126 75.7705 89.414 75.7705 89.4153C75.7705 89.4167 75.7705 89.4181 75.7705 89.4195C75.7705 89.4208 75.7705 89.4222 75.7705 89.4236C75.7705 89.425 75.7705 89.4263 75.7705 89.4277C75.7705 89.4291 75.7705 89.4304 75.7705 89.4318C75.7705 89.4332 75.7705 89.4345 75.7705 89.4359C75.7705 89.4373 75.7705 89.4386 75.7705 89.44C75.7705 89.4414 75.7705 89.4427 75.7705 89.4441C75.7705 89.4455 75.7705 89.4468 75.7705 89.4482C75.7705 89.4495 75.7705 89.4509 75.7705 89.4523C75.7705 89.4536 75.7705 89.455 75.7705 89.4563C75.7705 89.4577 75.7705 89.4591 75.7705 89.4604C75.7705 89.4618 75.7705 89.4631 75.7705 89.4645C75.7705 89.4658 75.7705 89.4672 75.7705 89.4685C75.7705 89.4699 75.7705 89.4712 75.7705 89.4726C75.7705 89.4739 75.7705 89.4753 75.7705 89.4766C75.7705 89.478 75.7705 89.4793 75.7705 89.4807C75.7705 89.482 75.7705 89.4834 75.7705 89.4847C75.7705 89.486 75.7705 89.4874 75.7705 89.4887C75.7705 89.4901 75.7705 89.4914 75.7705 89.4927C75.7705 89.4941 75.7705 89.4954 75.7705 89.4968C75.7705 89.4981 75.7705 89.4994 75.7705 89.5008C75.7705 89.5021 75.7705 89.5034 75.7705 89.5048C75.7705 89.5061 75.7705 89.5074 75.7705 89.5088C75.7705 89.5101 75.7705 89.5114 75.7705 89.5128C75.7705 89.5141 75.7705 89.5154 75.7705 89.5168C75.7705 89.5181 75.7705 89.5194 75.7705 89.5207C75.7705 89.5221 75.7705 89.5234 75.7705 89.5247C75.7705 89.526 75.7705 89.5274 75.7705 89.5287C75.7705 89.53 75.7705 89.5313 75.7705 89.5327C75.7705 89.534 75.7705 89.5353 75.7705 89.5366C75.7705 89.5379 75.7705 89.5393 75.7705 89.5406C75.7705 89.5419 75.7705 89.5432 75.7705 89.5445C75.7705 89.5458 75.7705 89.5471 75.7705 89.5485C75.7705 89.5498 75.7705 89.5511 75.7705 89.5524C75.7705 89.5537 75.7705 89.555 75.7705 89.5563C75.7705 89.5576 75.7705 89.5589 75.7705 89.5602C75.7705 89.5616 75.7705 89.5629 75.7705 89.5642C75.7705 89.5655 75.7705 89.5668 75.7705 89.5681C75.7705 89.5694 75.7705 89.5707 75.7705 89.572C75.7705 89.5733 75.7705 89.5746 75.7705 89.5759C75.7705 89.5772 75.7705 89.5785 75.7705 89.5798C75.7705 89.5811 75.7705 89.5824 75.7705 89.5837C75.7705 89.585 75.7705 89.5863 75.7705 89.5876C75.7705 89.5889 75.7705 89.5901 75.7705 89.5914C75.7705 89.5927 75.7705 89.594 75.7705 89.5953C75.7705 89.5966 75.7705 89.5979 75.7705 89.5992C75.7705 89.6005 75.7705 89.6017 75.7705 89.603C75.7705 89.6043 75.7705 89.6056 75.7705 89.6069C75.7705 89.6082 75.7705 89.6095 75.7705 89.6107C75.7705 89.612 75.7705 89.6133 75.7705 89.6146C75.7705 89.6159 75.7705 89.6171 75.7705 89.6184C75.7705 89.6197 75.7705 89.621 75.7705 89.6223C75.7705 89.6235 75.7705 89.6248 75.7705 89.6261C75.7705 89.6274 75.7705 89.6286 75.7705 89.6299C75.7705 89.6312 75.7705 89.6324 75.7705 89.6337C75.7705 89.635 75.7705 89.6363 75.7705 89.6375C75.7705 89.6388 75.7705 89.6401 75.7705 89.6413C75.7705 89.6426 75.7705 89.6439 75.7705 89.6451C75.7705 89.6464 75.7705 89.6477 75.7705 89.6489C75.7705 89.6502 75.7705 89.6514 75.7705 89.6527C75.7705 89.654 75.7705 89.6552 75.7705 89.6565C75.7705 89.6577 75.7705 89.659 75.7705 89.6603C75.7705 89.6615 75.7705 89.6628 75.7705 89.664C75.7705 89.6653 75.7705 89.6665 75.7705 89.6678C75.7705 89.669 75.7705 89.6703 75.7705 89.6715C75.7705 89.6728 75.7705 89.674 75.7705 89.6753C75.7705 89.6765 75.7705 89.6778 75.7705 89.679C75.7705 89.6803 75.7705 89.6815 75.7705 89.6828C75.7705 89.684 75.7705 89.6853 75.7705 89.6865C75.7705 89.6878 75.7705 89.689 75.7705 89.6902C75.7705 89.6915 75.7705 89.6927 75.7705 89.694C75.7705 89.6952 75.7705 89.6964 75.7705 89.6977C75.7705 89.6989 75.7705 89.7002 75.7705 89.7014C75.7705 89.7026 75.7705 89.7039 75.7705 89.7051C75.7705 89.7063 75.7705 89.7076 75.7705 89.7088C75.7705 89.71 75.7705 89.7113 75.7705 89.7125C75.7705 89.7137 75.7705 89.715 75.7705 89.7162C75.7705 89.7174 75.7705 89.7186 75.7705 89.7199C75.7705 89.7211 75.7705 89.7223 75.7705 89.7235C75.7705 89.7248 75.7705 89.726 75.7705 89.7272C75.7705 89.7284 75.7705 89.7297 75.7705 89.7309C75.7705 89.7321 75.7705 89.7333 75.7705 89.7345C75.7705 89.7358 75.7705 89.737 75.7705 89.7382C75.7705 89.7394 75.7705 89.7406 75.7705 89.7418C75.7705 89.743 75.7705 89.7443 75.7705 89.7455C75.7705 89.7467 75.7705 89.7479 75.7705 89.7491C75.7705 89.7503 75.7705 89.7515 75.7705 89.7527C75.7705 89.754 75.7705 89.7552 75.7705 89.7564C75.7705 89.7576 75.7705 89.7588 75.7705 89.76C75.7705 89.7612 75.7705 89.7624 75.7705 89.7636C75.7705 89.7648 75.7705 89.766 75.7705 89.7672C75.7705 89.7684 75.7705 89.7696 75.7705 89.7708C75.7705 89.772 75.7705 89.7732 75.7705 89.7744C75.7705 89.7756 75.7705 89.7768 75.7705 89.778C75.7705 89.7792 75.7705 89.7804 75.7705 89.7816C75.7705 89.7828 75.7705 89.784 75.7705 89.7852C75.7705 89.7863 75.7705 89.7875 75.7705 89.7887C75.7705 89.7899 75.7705 89.7911 75.7705 89.7923C75.7705 89.7935 75.7705 89.7947 75.7705 89.7959C75.7705 89.797 75.7705 89.7982 75.7705 89.7994C75.7705 89.8006 75.7705 89.8018 75.7705 89.803C75.7705 89.8041 75.7705 89.8053 75.7705 89.8065C75.7705 89.8077 75.7705 89.8089 75.7705 89.81C75.7705 89.8112 75.7705 89.8124 75.7705 89.8136C75.7705 89.8148 75.7705 89.8159 75.7705 89.8171C75.7705 89.8183 75.7705 89.8194 75.7705 89.8206C75.7705 89.8218 75.7705 89.823 75.7705 89.8241C75.7705 89.8253 75.7705 89.8265 75.7705 89.8276C75.7705 89.8288 75.7705 89.83 75.7705 89.8311C75.7705 89.8323 75.7705 89.8335 75.7705 89.8346C75.7705 89.8358 75.7705 89.837 75.7705 89.8381C75.7705 89.8393 75.7705 89.8405 75.7705 89.8416C75.7705 89.8428 75.7705 89.8439 75.7705 89.8451C75.7705 89.8463 75.7705 89.8474 75.7705 89.8486C75.7705 89.8497 75.7705 89.8509 75.7705 89.852C75.7705 89.8532 75.7705 89.8544 75.7705 89.8555C75.7705 89.8567 75.7705 89.8578 75.7705 89.859C75.7705 89.8601 75.7705 89.8613 75.7705 89.8624C75.7705 89.8636 75.7705 89.8647 75.7705 89.8659C75.7705 89.867 75.7705 89.8682 75.7705 89.8693C75.7705 89.8704 75.7705 89.8716 75.7705 89.8727C75.7705 89.8739 75.7705 89.875 75.7705 89.8762C75.7705 89.8773 75.7705 89.8784 75.7705 89.8796C75.7705 89.8807 75.7705 89.8819 75.7705 89.883C75.7705 89.8841 75.7705 89.8853 75.7705 89.8864C75.7705 89.8876 75.7705 89.8887 75.7705 89.8898C75.7705 89.891 75.7705 89.8921 75.7705 89.8932C75.7705 89.8944 75.7705 89.8955 75.7705 89.8966C75.7705 89.8977 75.7705 89.8989 75.7705 89.9C75.7705 89.9011 75.7705 89.9023 75.7705 89.9034C75.7705 89.9045 75.7705 89.9056 75.7705 89.9068C75.7705 89.9079 75.7705 89.909 75.7705 89.9101C75.7705 89.9113 75.7705 89.9124 75.7705 89.9135C75.7705 89.9146 75.7705 89.9157 75.7705 89.9169C75.7705 89.918 75.7705 89.9191 75.7705 89.9202C75.7705 89.9213 75.7705 89.9224 75.7705 89.9236C75.7705 89.9247 75.7705 89.9258 75.7705 89.9269C75.7705 89.928 75.7705 89.9291 75.7705 89.9302C75.7705 89.9313 75.7705 89.9325 75.7705 89.9336C75.7705 89.9347 75.7705 89.9358 75.7705 89.9369C75.7705 89.938 75.7705 89.9391 75.7705 89.9402C75.7705 89.9413 75.7705 89.9424 75.7705 89.9435C75.7705 89.9446 75.7705 89.9457 75.7705 89.9468C75.7705 89.9479 75.7705 89.949 75.7705 89.9501C75.7705 89.9512 75.7705 89.9523 75.7705 89.9534C75.7705 89.9545 75.7705 89.9556 75.7705 89.9567C75.7705 89.9578 75.7705 89.9589 75.7705 89.96H81.7705ZM81.7705 87.524V58.04H75.7705V87.524H81.7705ZM81.7705 58.04C81.7705 56.7677 81.7992 55.9289 81.8422 55.4556L75.8669 54.9124C75.7979 55.6711 75.7705 56.7363 75.7705 58.04H81.7705ZM81.8137 55.6772C81.8648 55.3707 81.9993 54.9306 82.2938 54.3416L76.9273 51.6584C76.4378 52.6374 76.0683 53.6533 75.8954 54.6908L81.8137 55.6772ZM82.2738 54.381C82.2016 54.5203 82.188 54.352 82.8179 54.134C83.4702 53.9082 84.5415 53.732 86.1625 53.732V47.732C84.1996 47.732 82.3869 47.9338 80.8552 48.464C79.3011 49.002 77.8035 49.9677 76.9473 51.619L82.2738 54.381ZM86.1625 53.732C87.6846 53.732 88.7216 53.8819 89.378 54.0832C90.0388 54.2858 90.0487 54.4545 89.9497 54.3028L94.9754 51.0252C94.0364 49.5855 92.5763 48.7882 91.1371 48.3468C89.6935 47.9041 88.0005 47.732 86.1625 47.732V53.732ZM89.9904 54.3636C90.3131 54.833 90.3866 55.1743 90.3866 55.436H96.3866C96.3866 53.7937 95.844 52.287 94.9347 50.9644L89.9904 54.3636ZM95.8278 57.1797C96.0166 56.9153 96.3269 56.5322 96.7924 56.0149L92.3327 52.0011C91.7902 52.6038 91.3165 53.1727 90.9453 53.6923L95.8278 57.1797ZM96.6839 56.1293C96.9056 55.9075 97.6994 55.3299 99.449 54.3704L96.5641 49.1096C94.8417 50.0541 93.3395 50.9884 92.4412 51.8867L96.6839 56.1293ZM99.449 54.3704C100.96 53.542 101.959 53.312 102.543 53.312V47.312C100.55 47.312 98.5253 48.034 96.5641 49.1096L99.449 54.3704ZM102.543 53.312C103.779 53.312 104.7 53.3907 105.35 53.5126L106.455 47.6154C105.314 47.4013 103.994 47.312 102.543 47.312V53.312ZM105.53 53.5408C106.21 53.6258 107.01 53.8032 107.939 54.0967L109.746 48.3752C108.547 47.9968 107.387 47.7262 106.275 47.5872L105.53 53.5408Z"
                fill="#232323" mask="url(#path-3-outside-1_965_2)" />
        </g>
    </g>
    <defs>
        <filter id="filter0_i_965_2" x="0" y="0" width="128" height="128" filterUnits="userSpaceOnUse"
            color-interpolation-filters="sRGB">
            <feFlood flood-opacity="0" result="BackgroundImageFix" />
            <feBlend mode="normal" in="SourceGraphic" in2="BackgroundImageFix" result="shape" />
            <feColorMatrix in="SourceAlpha" type="matrix" values="0 0 0 0 0 0 0 0 0 0 0 0 0 0 0 0 0 0 127 0"
                result="hardAlpha" />
            <feMorphology radius="6" operator="erode" in="SourceAlpha" result="effect1_innerShadow_965_2" />
            <feOffset />
            <feGaussianBlur stdDeviation="2" />
            <feComposite in2="hardAlpha" operator="arithmetic" k2="-1" k3="1" />
            <feColorMatrix type="matrix" values="0 0 0 0 0.137255 0 0 0 0 0.137255 0 0 0 0 0.137255 0 0 0 0.25 0" />
            <feBlend mode="normal" in2="shape" result="effect1_innerShadow_965_2" />
        </filter>
        <filter id="filter1_d_965_2" x="2.29883" y="18.84" width="124.24" height="91" filterUnits="userSpaceOnUse"
            color-interpolation-filters="sRGB">
            <feFlood flood-opacity="0" result="BackgroundImageFix" />
            <feColorMatrix in="SourceAlpha" type="matrix" values="0 0 0 0 0 0 0 0 0 0 0 0 0 0 0 0 0 0 127 0"
                result="hardAlpha" />
            <feOffset />
            <feGaussianBlur stdDeviation="7" />
            <feComposite in2="hardAlpha" operator="out" />
            <feColorMatrix type="matrix" values="0 0 0 0 0 0 0 0 0 0 0 0 0 0 0 0 0 0 0.25 0" />
            <feBlend mode="normal" in2="BackgroundImageFix" result="effect1_dropShadow_965_2" />
            <feBlend mode="normal" in="SourceGraphic" in2="effect1_dropShadow_965_2" result="shape" />
        </filter>
        <linearGradient id="paint0_linear_965_2" x1="0" y1="0" x2="128" y2="128" gradientUnits="userSpaceOnUse">
            <stop stop-color="#FFC09E" />
            <stop offset="1" stop-color="#D35B19" />
        </linearGradient>
    </defs>
</svg>