<svg width="128" height="128" viewBox="0 0 128 128" fill="none" xmlns="http://www.w3.org/2000/svg">
<g clip-path="url(#clip0_937_2)">
<rect width="128" height="128" rx="18" fill="#262626"/>
<path d="M8.20638 78.1557L40.0187 90.3465C51.6223 94.7931 57.4242 107.804 52.9776 119.408L38.8279 156.332C34.3813 167.936 21.3701 173.737 9.76646 169.291L-22.0458 157.1C-33.6494 152.654 -39.4513 139.642 -35.0047 128.039L-20.8551 91.1146C-16.4085 79.511 -3.39721 73.7091 8.20638 78.1557Z" stroke="white" stroke-width="5"/>
<path d="M107.517 -48.0409L139.854 -58.7606C151.65 -62.6706 164.381 -56.2784 168.291 -44.4832L180.734 -6.94926C184.644 4.84597 178.251 17.5776 166.456 21.4876L134.118 32.2073C122.323 36.1173 109.592 29.7251 105.682 17.9298L93.2394 -19.6041C89.3293 -31.3993 95.7216 -44.1309 107.517 -48.0409Z" stroke="white" stroke-width="5"/>
<g filter="url(#filter0_d_937_2)">
<mask id="path-4-outside-1_937_2" maskUnits="userSpaceOnUse" x="1.55021" y="18.0735" width="121.143" height="90.7376" fill="black">
<rect fill="white" x="1.55021" y="18.0735" width="121.143" height="90.7376"/>
<path d="M33.7612 74.0432C36.6358 74.8135 39.0711 74.936 41.0671 74.4107C43.1022 73.8627 44.3642 72.6769 44.8528 70.8533C45.1758 69.6478 45.1555 68.5491 44.7918 67.5572C44.4591 66.5735 43.5534 65.5026 42.0747 64.3445C40.6044 63.1554 38.3202 61.6654 35.2221 59.8746C32.2847 58.2261 29.7833 56.4958 27.718 54.6835C25.6919 52.8485 24.2669 50.8103 23.443 48.5687C22.65 46.3353 22.6386 43.7813 23.4088 40.9068C24.1791 38.0322 25.6577 35.7284 27.8448 33.9954C30.0401 32.2315 32.8139 31.1526 36.166 30.7588C39.5574 30.3423 43.4013 30.7097 47.6977 31.8609C51.9014 32.9873 55.4306 34.5293 58.2852 36.4868C61.1481 38.4134 63.4883 40.4981 65.3057 42.741L58.2982 48.8639C56.6596 47.0666 54.7847 45.4709 52.6735 44.077C50.6015 42.6605 48.2364 41.5961 45.5782 40.8838C42.7036 40.1136 40.4899 39.9677 38.9372 40.4461C37.4154 40.9328 36.4557 41.918 36.0581 43.4016C35.7765 44.4526 35.8609 45.4359 36.3112 46.3517C36.8008 47.2448 37.8199 48.2633 39.3686 49.4071C40.9565 50.5283 43.249 51.9873 46.2461 53.7842C49.1979 55.5028 51.6909 57.2641 53.7254 59.0681C55.7907 60.8804 57.2115 62.9341 57.988 65.2293C58.7644 67.5244 58.7302 70.2484 57.8854 73.4012C56.933 76.9558 55.1107 79.6147 52.4186 81.378C49.7265 83.1414 46.5272 84.1393 42.8207 84.3719C39.1534 84.5819 35.3415 84.1569 31.3851 83.0967C26.7486 81.8544 22.8775 80.1049 19.7718 77.8482C16.666 75.5914 14.1893 73.0891 12.3415 70.3413L20.6066 64.9031C22.1172 66.9312 23.9609 68.7669 26.1377 70.4104C28.3455 72.062 30.8866 73.273 33.7612 74.0432ZM61.2093 89.5973L74.3656 40.4974L85.0294 43.3547L84.2829 49.6645C87.0473 47.7549 89.9088 46.534 92.8675 46.0016C95.8343 45.4383 98.8324 45.5624 101.862 46.3741C106.282 47.5584 109.307 49.744 110.938 52.9306C112.577 56.0864 112.779 59.967 111.545 64.5726L101.917 100.505L89.6771 97.2252L98.0255 66.0683C98.6881 63.5956 99.0636 61.5759 99.1521 60.0095C99.2488 58.4121 98.9514 57.1729 98.2599 56.2919C97.5766 55.3799 96.4159 54.7045 94.7777 54.2656C93.4486 53.9094 92.0871 53.8593 90.6934 54.1153C89.3305 54.3796 87.9757 54.8614 86.6288 55.5606C85.3129 56.2681 84.0297 57.1004 82.7794 58.0574L73.4495 92.8771L61.2093 89.5973Z"/>
</mask>
<path d="M33.7612 74.0432C36.6358 74.8135 39.0711 74.936 41.0671 74.4107C43.1022 73.8627 44.3642 72.6769 44.8528 70.8533C45.1758 69.6478 45.1555 68.5491 44.7918 67.5572C44.4591 66.5735 43.5534 65.5026 42.0747 64.3445C40.6044 63.1554 38.3202 61.6654 35.2221 59.8746C32.2847 58.2261 29.7833 56.4958 27.718 54.6835C25.6919 52.8485 24.2669 50.8103 23.443 48.5687C22.65 46.3353 22.6386 43.7813 23.4088 40.9068C24.1791 38.0322 25.6577 35.7284 27.8448 33.9954C30.0401 32.2315 32.8139 31.1526 36.166 30.7588C39.5574 30.3423 43.4013 30.7097 47.6977 31.8609C51.9014 32.9873 55.4306 34.5293 58.2852 36.4868C61.1481 38.4134 63.4883 40.4981 65.3057 42.741L58.2982 48.8639C56.6596 47.0666 54.7847 45.4709 52.6735 44.077C50.6015 42.6605 48.2364 41.5961 45.5782 40.8838C42.7036 40.1136 40.4899 39.9677 38.9372 40.4461C37.4154 40.9328 36.4557 41.918 36.0581 43.4016C35.7765 44.4526 35.8609 45.4359 36.3112 46.3517C36.8008 47.2448 37.8199 48.2633 39.3686 49.4071C40.9565 50.5283 43.249 51.9873 46.2461 53.7842C49.1979 55.5028 51.6909 57.2641 53.7254 59.0681C55.7907 60.8804 57.2115 62.9341 57.988 65.2293C58.7644 67.5244 58.7302 70.2484 57.8854 73.4012C56.933 76.9558 55.1107 79.6147 52.4186 81.378C49.7265 83.1414 46.5272 84.1393 42.8207 84.3719C39.1534 84.5819 35.3415 84.1569 31.3851 83.0967C26.7486 81.8544 22.8775 80.1049 19.7718 77.8482C16.666 75.5914 14.1893 73.0891 12.3415 70.3413L20.6066 64.9031C22.1172 66.9312 23.9609 68.7669 26.1377 70.4104C28.3455 72.062 30.8866 73.273 33.7612 74.0432ZM61.2093 89.5973L74.3656 40.4974L85.0294 43.3547L84.2829 49.6645C87.0473 47.7549 89.9088 46.534 92.8675 46.0016C95.8343 45.4383 98.8324 45.5624 101.862 46.3741C106.282 47.5584 109.307 49.744 110.938 52.9306C112.577 56.0864 112.779 59.967 111.545 64.5726L101.917 100.505L89.6771 97.2252L98.0255 66.0683C98.6881 63.5956 99.0636 61.5759 99.1521 60.0095C99.2488 58.4121 98.9514 57.1729 98.2599 56.2919C97.5766 55.3799 96.4159 54.7045 94.7777 54.2656C93.4486 53.9094 92.0871 53.8593 90.6934 54.1153C89.3305 54.3796 87.9757 54.8614 86.6288 55.5606C85.3129 56.2681 84.0297 57.1004 82.7794 58.0574L73.4495 92.8771L61.2093 89.5973Z" fill="white"/>
<path d="M41.0671 74.4107L42.3397 79.246L42.3533 79.2424L42.367 79.2387L41.0671 74.4107ZM44.7918 67.5572L40.0555 69.1594L40.0757 69.2191L40.0974 69.2783L44.7918 67.5572ZM42.0747 64.3445L38.9307 68.2323L38.961 68.2567L38.9916 68.2807L42.0747 64.3445ZM35.2221 59.8746L37.7244 55.5458L37.6969 55.5298L37.6691 55.5142L35.2221 59.8746ZM27.718 54.6835L24.3617 58.3895L24.3907 58.4159L24.4202 58.4417L27.718 54.6835ZM23.443 48.5687L18.7312 50.2417L18.7404 50.2677L18.7499 50.2936L23.443 48.5687ZM27.8448 33.9954L30.9501 37.9142L30.9633 37.9037L30.9765 37.8931L27.8448 33.9954ZM36.166 30.7588L36.7494 35.7246L36.7624 35.7231L36.7754 35.7215L36.166 30.7588ZM58.2852 36.4868L55.4575 40.6104L55.4755 40.6228L55.4936 40.635L58.2852 36.4868ZM65.3057 42.741L68.5956 46.5061L72.2236 43.3361L69.1904 39.593L65.3057 42.741ZM58.2982 48.8639L54.6033 52.2325L57.9016 55.8503L61.5881 52.6291L58.2982 48.8639ZM52.6735 44.077L49.8516 48.2046L49.8849 48.2274L49.9185 48.2496L52.6735 44.077ZM38.9372 40.4461L37.4649 35.6678L37.4395 35.6756L37.4141 35.6837L38.9372 40.4461ZM36.3112 46.3517L31.8244 48.5581L31.8733 48.6576L31.9266 48.7548L36.3112 46.3517ZM39.3686 49.4071L36.3982 53.4291L36.4411 53.4608L36.4847 53.4916L39.3686 49.4071ZM46.2461 53.7842L43.675 58.0725L43.7026 58.0891L43.7304 58.1053L46.2461 53.7842ZM53.7254 59.0681L50.408 62.8091L50.4177 62.8177L50.4275 62.8263L53.7254 59.0681ZM57.988 65.2293L62.7243 63.627L62.7243 63.627L57.988 65.2293ZM52.4186 81.378L49.679 77.1954L49.679 77.1954L52.4186 81.378ZM42.8207 84.3719L43.1065 89.3638L43.1202 89.363L43.1338 89.3621L42.8207 84.3719ZM19.7718 77.8482L16.8326 81.8931L16.8326 81.8931L19.7718 77.8482ZM12.3415 70.3413L9.59324 66.1643L5.37416 68.9403L8.19234 73.1313L12.3415 70.3413ZM20.6066 64.9031L24.6166 61.9164L21.7989 58.1335L17.8584 60.7262L20.6066 64.9031ZM26.1377 70.4104L23.1251 74.4008L23.1338 74.4074L23.1425 74.4139L26.1377 70.4104ZM32.4671 78.8729C35.8335 79.7749 39.211 80.0694 42.3397 79.246L39.7945 69.5753C38.9313 69.8025 37.4382 69.8521 35.0553 69.2136L32.4671 78.8729ZM42.367 79.2387C45.8831 78.2921 48.6706 75.9234 49.6824 72.1474L40.0232 69.5592C40.0059 69.6236 39.9978 69.6244 40.0193 69.5874C40.0424 69.5478 40.0771 69.5031 40.1159 69.4667C40.153 69.4318 40.1643 69.4321 40.1214 69.4547C40.0752 69.4789 39.9655 69.5292 39.7672 69.5826L42.367 79.2387ZM49.6824 72.1474C50.2225 70.1319 50.2652 67.9606 49.4863 65.8361L40.0974 69.2783C40.0802 69.2313 40.0804 69.2017 40.0807 69.2176C40.0811 69.2407 40.0797 69.3483 40.0232 69.5592L49.6824 72.1474ZM49.5281 65.9549C48.7199 63.5656 46.8667 61.7466 45.1579 60.4082L38.9916 68.2807C39.5467 68.7155 39.8722 69.0404 40.0453 69.245C40.226 69.4587 40.1475 69.4313 40.0555 69.1594L49.5281 65.9549ZM45.2188 60.4567C43.4404 59.0185 40.8866 57.3737 37.7244 55.5458L32.7198 64.2034C35.7538 65.9572 37.7684 67.2923 38.9307 68.2323L45.2188 60.4567ZM37.6691 55.5142C34.9701 53.9996 32.7684 52.4631 31.0158 50.9252L24.4202 58.4417C26.7982 60.5284 29.5993 62.4526 32.7752 64.2349L37.6691 55.5142ZM31.0743 50.9774C29.5601 49.6061 28.6431 48.2233 28.136 46.8437L18.7499 50.2936C19.8907 53.3972 21.8236 56.091 24.3617 58.3895L31.0743 50.9774ZM28.1548 46.8956C27.7782 45.8352 27.663 44.3483 28.2385 42.2008L18.5792 39.6127C17.6141 43.2143 17.5217 46.8354 18.7312 50.2417L28.1548 46.8956ZM28.2385 42.2008C28.7504 40.2903 29.6624 38.9345 30.9501 37.9142L24.7395 30.0765C21.6531 32.5222 19.6078 35.774 18.5792 39.6127L28.2385 42.2008ZM30.9765 37.8931C32.3056 36.8252 34.1433 36.0308 36.7494 35.7246L35.5826 25.7929C31.4844 26.2744 27.7746 27.6377 24.7131 30.0976L30.9765 37.8931ZM36.7754 35.7215C39.3691 35.403 42.5491 35.6578 46.4036 36.6906L48.9918 27.0313C44.2534 25.7617 39.7456 25.2816 35.5566 25.796L36.7754 35.7215ZM46.4036 36.6906C50.1946 37.7064 53.173 39.0439 55.4575 40.6104L61.1129 32.3632C57.6881 30.0147 53.6082 28.2683 48.9918 27.0313L46.4036 36.6906ZM55.4936 40.635C58.0224 42.3367 59.9703 44.0986 61.4211 45.8889L69.1904 39.593C67.0062 36.8977 64.2738 34.4901 61.0767 32.3386L55.4936 40.635ZM62.0158 38.9758L55.0083 45.0987L61.5881 52.6291L68.5956 46.5061L62.0158 38.9758ZM61.9931 45.4953C60.0646 43.38 57.8711 41.5172 55.4284 39.9045L49.9185 48.2496C51.6982 49.4246 53.2545 50.7531 54.6033 52.2325L61.9931 45.4953ZM55.4954 39.9494C52.9146 38.1851 50.0233 36.8985 46.8723 36.0542L44.2841 45.7134C46.4495 46.2937 48.2884 47.1359 49.8516 48.2046L55.4954 39.9494ZM46.8723 36.0542C43.7365 35.214 40.3933 34.7655 37.4649 35.6678L40.4095 45.2244C40.5865 45.1699 41.6707 45.0132 44.2841 45.7134L46.8723 36.0542ZM37.4141 35.6837C34.3504 36.6635 32.0873 38.9024 31.2285 42.1075L40.8878 44.6957C40.8924 44.6783 40.8838 44.7174 40.8432 44.7911C40.8014 44.8673 40.7393 44.955 40.6576 45.0389C40.4799 45.2214 40.3528 45.2428 40.4603 45.2085L37.4141 35.6837ZM31.2285 42.1075C30.656 44.2442 30.8024 46.4799 31.8244 48.5581L40.7981 44.1452C40.8374 44.2252 40.8792 44.352 40.8919 44.4999C40.9042 44.6428 40.8819 44.7178 40.8878 44.6957L31.2285 42.1075ZM31.9266 48.7548C32.9524 50.6264 34.6948 52.1711 36.3982 53.4291L42.3391 45.3851C41.7026 44.915 41.2639 44.5353 40.9771 44.2487C40.6762 43.948 40.6397 43.8461 40.6958 43.9485L31.9266 48.7548ZM36.4847 53.4916C38.2241 54.7197 40.6408 56.2533 43.675 58.0725L48.8172 49.496C45.8573 47.7213 43.689 46.3368 42.2525 45.3226L36.4847 53.4916ZM43.7304 58.1053C46.4655 59.6977 48.6744 61.2718 50.408 62.8091L57.0427 55.3271C54.7075 53.2563 51.9302 51.3079 48.7618 49.4632L43.7304 58.1053ZM50.4275 62.8263C51.9224 64.138 52.793 65.4757 53.2516 66.8315L62.7243 63.627C61.6301 60.3925 59.659 57.6227 57.0232 55.3098L50.4275 62.8263ZM53.2516 66.8315C53.6193 67.9182 53.7317 69.5846 53.0558 72.1071L62.7151 74.6953C63.7287 70.9122 63.9095 67.1306 62.7243 63.627L53.2516 66.8315ZM53.0558 72.1071C52.3726 74.6566 51.1958 76.2019 49.679 77.1954L55.1582 85.5607C59.0256 83.0276 61.4933 79.2549 62.7151 74.6953L53.0558 72.1071ZM49.679 77.1954C47.8172 78.4149 45.4836 79.195 42.5075 79.3818L43.1338 89.3621C47.5707 89.0837 51.6358 87.8679 55.1582 85.5607L49.679 77.1954ZM42.5348 79.3801C39.4568 79.5564 36.1796 79.205 32.6791 78.2671L30.091 87.9264C34.5034 89.1087 38.8499 89.6075 43.1065 89.3638L42.5348 79.3801ZM32.6791 78.2671C28.492 77.1452 25.2142 75.6222 22.7109 73.8032L16.8326 81.8931C20.5408 84.5875 25.0052 86.5636 30.091 87.9264L32.6791 78.2671ZM22.7109 73.8032C20.0047 71.8368 17.9642 69.7425 16.4907 67.5512L8.19234 73.1313C10.4144 76.4358 13.3274 79.3461 16.8326 81.8931L22.7109 73.8032ZM15.0898 74.5182L23.3549 69.0801L17.8584 60.7262L9.59324 66.1643L15.0898 74.5182ZM16.5967 67.8899C18.4118 70.3267 20.5995 72.4942 23.1251 74.4008L29.1504 66.4199C27.3223 65.0397 25.8226 63.5357 24.6166 61.9164L16.5967 67.8899ZM23.1425 74.4139C25.8988 76.476 29.0272 77.9512 32.4671 78.8729L35.0553 69.2136C32.746 68.5948 30.7922 67.6481 29.133 66.4068L23.1425 74.4139ZM61.2093 89.5973L56.3797 88.3032L55.0856 93.1329L59.9152 94.427L61.2093 89.5973ZM74.3656 40.4974L75.6597 35.6678L70.8301 34.3737L69.536 39.2033L74.3656 40.4974ZM85.0294 43.3547L89.9948 43.9422L90.5032 39.6451L86.3235 38.5251L85.0294 43.3547ZM84.2829 49.6645L79.3175 49.0771L78.0169 60.0698L87.1247 53.7785L84.2829 49.6645ZM92.8675 46.0016L93.753 50.9225L93.7766 50.9183L93.8001 50.9138L92.8675 46.0016ZM110.938 52.9306L106.487 55.2085L106.494 55.2219L106.501 55.2353L110.938 52.9306ZM101.917 100.505L100.623 105.335L105.453 106.629L106.747 101.799L101.917 100.505ZM89.6771 97.2252L84.8475 95.9311L83.5534 100.761L88.383 102.055L89.6771 97.2252ZM99.1521 60.0095L94.1612 59.7072L94.1606 59.7174L94.16 59.7276L99.1521 60.0095ZM98.2599 56.2919L94.2585 59.29L94.2921 59.3349L94.3268 59.3791L98.2599 56.2919ZM90.6934 54.1153L89.7901 49.1976L89.7658 49.2021L89.7415 49.2068L90.6934 54.1153ZM86.6288 55.5606L84.325 51.123L84.2929 51.1396L84.2611 51.1567L86.6288 55.5606ZM82.7794 58.0574L79.7404 54.087L78.39 55.1206L77.9498 56.7633L82.7794 58.0574ZM73.4495 92.8771L72.1554 97.7067L76.9851 99.0008L78.2792 94.1712L73.4495 92.8771ZM66.0389 90.8914L79.1952 41.7915L69.536 39.2033L56.3797 88.3032L66.0389 90.8914ZM73.0715 45.327L83.7353 48.1844L86.3235 38.5251L75.6597 35.6678L73.0715 45.327ZM80.0641 42.7673L79.3175 49.0771L89.2483 50.252L89.9948 43.9422L80.0641 42.7673ZM87.1247 53.7785C89.3715 52.2264 91.5751 51.3144 93.753 50.9225L91.9819 41.0806C88.2426 41.7535 84.7232 43.2835 81.4411 45.5506L87.1247 53.7785ZM93.8001 50.9138C95.9993 50.4963 98.2361 50.579 100.567 51.2037L103.156 41.5445C99.4286 40.5458 95.6694 40.3802 91.9348 41.0893L93.8001 50.9138ZM100.567 51.2037C104.027 52.1306 105.669 53.6108 106.487 55.2085L115.389 50.6528C112.945 45.8771 108.536 42.9862 103.156 41.5445L100.567 51.2037ZM106.501 55.2353C107.391 56.9503 107.739 59.4611 106.716 63.2785L116.375 65.8666C117.82 60.473 117.762 55.2224 115.375 50.626L106.501 55.2353ZM106.716 63.2785L97.0877 99.2109L106.747 101.799L116.375 65.8666L106.716 63.2785ZM103.211 95.6754L90.9712 92.3956L88.383 102.055L100.623 105.335L103.211 95.6754ZM94.5067 98.5193L102.855 67.3624L93.1959 64.7742L84.8475 95.9311L94.5067 98.5193ZM102.855 67.3624C103.558 64.738 104.028 62.3455 104.144 60.2913L94.16 59.7276C94.0991 60.8064 93.8179 62.4531 93.1959 64.7742L102.855 67.3624ZM104.143 60.3117C104.282 58.0114 103.909 55.3902 102.193 53.2046L94.3268 59.3791C94.2535 59.2857 94.2041 59.1993 94.1733 59.1334C94.1433 59.069 94.1366 59.0362 94.1396 59.0489C94.1479 59.0833 94.187 59.2817 94.1612 59.7072L104.143 60.3117ZM102.261 53.2937C100.648 51.1404 98.2854 50.0291 96.0718 49.4359L93.4836 59.0952C93.9816 59.2286 94.2492 59.3572 94.3621 59.4229C94.4651 59.4829 94.3838 59.4572 94.2585 59.29L102.261 53.2937ZM96.0718 49.4359C94.0041 48.8819 91.8913 48.8117 89.7901 49.1976L91.5966 59.0331C92.2829 58.907 92.893 58.9369 93.4836 59.0952L96.0718 49.4359ZM89.7415 49.2068C87.8661 49.5704 86.0583 50.2232 84.325 51.123L88.9326 59.9982C89.8931 59.4996 90.7949 59.1888 91.6452 59.0239L89.7415 49.2068ZM84.2611 51.1567C82.698 51.9972 81.1912 52.9765 79.7404 54.087L85.8185 62.0278C86.8682 61.2243 87.9278 60.5391 88.9965 59.9645L84.2611 51.1567ZM77.9498 56.7633L68.6199 91.583L78.2792 94.1712L87.6091 59.3515L77.9498 56.7633ZM74.7436 88.0474L62.5034 84.7677L59.9152 94.427L72.1554 97.7067L74.7436 88.0474Z" fill="url(#paint0_radial_937_2)" mask="url(#path-4-outside-1_937_2)"/>
</g>
</g>
<defs>
<filter id="filter0_d_937_2" x="-3.57178" y="11.5996" width="133.018" height="104.296" filterUnits="userSpaceOnUse" color-interpolation-filters="sRGB">
<feFlood flood-opacity="0" result="BackgroundImageFix"/>
<feColorMatrix in="SourceAlpha" type="matrix" values="0 0 0 0 0 0 0 0 0 0 0 0 0 0 0 0 0 0 127 0" result="hardAlpha"/>
<feOffset/>
<feGaussianBlur stdDeviation="7"/>
<feComposite in2="hardAlpha" operator="out"/>
<feColorMatrix type="matrix" values="0 0 0 0 0 0 0 0 0 0 0 0 0 0 0 0 0 0 0.25 0"/>
<feBlend mode="normal" in2="BackgroundImageFix" result="effect1_dropShadow_937_2"/>
<feBlend mode="normal" in="SourceGraphic" in2="effect1_dropShadow_937_2" result="shape"/>
</filter>
<radialGradient id="paint0_radial_937_2" cx="0" cy="0" r="1" gradientUnits="userSpaceOnUse" gradientTransform="translate(11.9856 46.3805) rotate(15) scale(108.844 81.9866)">
<stop stop-color="#521B1B"/>
<stop offset="1" stop-color="#EB6F6F"/>
</radialGradient>
<clipPath id="clip0_937_2">
<rect width="128" height="128" rx="18" fill="white"/>
</clipPath>
</defs>
</svg>
