<svg width="128" height="128" viewBox="0 0 128 128" fill="none" xmlns="http://www.w3.org/2000/svg">
    <mask id="path-2-outside-1_953_2" maskUnits="userSpaceOnUse" x="24" y="9" width="81"
        height="111" fill="black">
        <rect fill="white" x="24" y="9" width="81" height="111" />
        <path
            d="M31.3105 100.786C28.9185 97.842 27.7225 95.22 27.7225 92.92C27.7225 90.528 29.7005 87.4 33.6565 83.536C35.9565 81.328 38.3945 80.224 40.9705 80.224C43.5465 80.224 47.1345 82.524 51.7345 87.124C53.0225 88.688 54.8625 90.206 57.2545 91.678C59.6465 93.058 61.8545 93.748 63.8785 93.748C72.4345 93.748 76.7125 90.252 76.7125 83.26C76.7125 81.144 75.5165 79.396 73.1245 78.016C70.8245 76.544 67.9265 75.486 64.4305 74.842C60.9345 74.198 57.1625 73.186 53.1145 71.806C49.0665 70.334 45.2945 68.632 41.7985 66.7C38.3025 64.768 35.3585 61.732 32.9665 57.592C30.6665 53.36 29.5165 48.3 29.5165 42.412C29.5165 34.316 32.5065 27.278 38.4865 21.298C44.5585 15.226 52.7925 12.19 63.1885 12.19C68.7085 12.19 73.7225 12.926 78.2305 14.398C82.8305 15.778 86.0045 17.204 87.7525 18.676L91.2025 21.298C94.0545 23.966 95.4805 26.22 95.4805 28.06C95.4805 29.9 94.3765 32.43 92.1685 35.65C89.0405 40.25 85.8205 42.55 82.5085 42.55C80.5765 42.55 78.1845 41.63 75.3325 39.79C75.0565 39.606 74.5045 39.146 73.6765 38.41C72.9405 37.674 72.2505 37.076 71.6065 36.616C69.6745 35.42 67.1905 34.822 64.1545 34.822C61.2105 34.822 58.7265 35.558 56.7025 37.03C54.7705 38.41 53.8045 40.388 53.8045 42.964C53.8045 45.448 54.9545 47.472 57.2545 49.036C59.6465 50.6 62.5905 51.658 66.0865 52.21C69.5825 52.762 73.4005 53.636 77.5405 54.832C81.6805 55.936 85.4985 57.316 88.9945 58.972C92.4905 60.628 95.3885 63.526 97.6885 67.666C100.08 71.714 101.276 76.728 101.276 82.708C101.276 88.688 100.08 93.978 97.6885 98.578C95.2965 103.086 92.1685 106.582 88.3045 109.066C80.8525 113.942 72.8945 116.38 64.4305 116.38C60.1065 116.38 56.0125 115.874 52.1485 114.862C48.2845 113.758 45.1565 112.424 42.7645 110.86C37.8885 107.916 34.4845 105.064 32.5525 102.304L31.3105 100.786Z" />
    </mask>
    <path
        d="M31.3105 100.786C28.9185 97.842 27.7225 95.22 27.7225 92.92C27.7225 90.528 29.7005 87.4 33.6565 83.536C35.9565 81.328 38.3945 80.224 40.9705 80.224C43.5465 80.224 47.1345 82.524 51.7345 87.124C53.0225 88.688 54.8625 90.206 57.2545 91.678C59.6465 93.058 61.8545 93.748 63.8785 93.748C72.4345 93.748 76.7125 90.252 76.7125 83.26C76.7125 81.144 75.5165 79.396 73.1245 78.016C70.8245 76.544 67.9265 75.486 64.4305 74.842C60.9345 74.198 57.1625 73.186 53.1145 71.806C49.0665 70.334 45.2945 68.632 41.7985 66.7C38.3025 64.768 35.3585 61.732 32.9665 57.592C30.6665 53.36 29.5165 48.3 29.5165 42.412C29.5165 34.316 32.5065 27.278 38.4865 21.298C44.5585 15.226 52.7925 12.19 63.1885 12.19C68.7085 12.19 73.7225 12.926 78.2305 14.398C82.8305 15.778 86.0045 17.204 87.7525 18.676L91.2025 21.298C94.0545 23.966 95.4805 26.22 95.4805 28.06C95.4805 29.9 94.3765 32.43 92.1685 35.65C89.0405 40.25 85.8205 42.55 82.5085 42.55C80.5765 42.55 78.1845 41.63 75.3325 39.79C75.0565 39.606 74.5045 39.146 73.6765 38.41C72.9405 37.674 72.2505 37.076 71.6065 36.616C69.6745 35.42 67.1905 34.822 64.1545 34.822C61.2105 34.822 58.7265 35.558 56.7025 37.03C54.7705 38.41 53.8045 40.388 53.8045 42.964C53.8045 45.448 54.9545 47.472 57.2545 49.036C59.6465 50.6 62.5905 51.658 66.0865 52.21C69.5825 52.762 73.4005 53.636 77.5405 54.832C81.6805 55.936 85.4985 57.316 88.9945 58.972C92.4905 60.628 95.3885 63.526 97.6885 67.666C100.08 71.714 101.276 76.728 101.276 82.708C101.276 88.688 100.08 93.978 97.6885 98.578C95.2965 103.086 92.1685 106.582 88.3045 109.066C80.8525 113.942 72.8945 116.38 64.4305 116.38C60.1065 116.38 56.0125 115.874 52.1485 114.862C48.2845 113.758 45.1565 112.424 42.7645 110.86C37.8885 107.916 34.4845 105.064 32.5525 102.304L31.3105 100.786Z"
        fill="url(#paint0_linear_953_2)" />
    <path
        d="M31.3105 100.786L28.9821 102.678L28.9886 102.686L31.3105 100.786ZM33.6565 83.536L31.5789 81.3718L31.5695 81.3808L31.5602 81.3899L33.6565 83.536ZM51.7345 87.124L54.0503 85.2169L53.9582 85.1051L53.8558 85.0027L51.7345 87.124ZM57.2545 91.678L55.6822 94.233L55.7184 94.2553L55.7553 94.2766L57.2545 91.678ZM73.1245 78.016L71.5073 80.5428L71.5655 80.58L71.6253 80.6146L73.1245 78.016ZM64.4305 74.842L63.887 77.7924L63.887 77.7924L64.4305 74.842ZM53.1145 71.806L52.0892 74.6254L52.1177 74.6357L52.1464 74.6455L53.1145 71.806ZM32.9665 57.592L30.3306 59.0245L30.3493 59.0589L30.3689 59.0928L32.9665 57.592ZM38.4865 21.298L40.6078 23.4193L40.6078 23.4193L38.4865 21.298ZM78.2305 14.398L77.2993 17.2498L77.3337 17.2611L77.3684 17.2715L78.2305 14.398ZM87.7525 18.676L85.8201 20.9707L85.8775 21.0191L85.9372 21.0645L87.7525 18.676ZM91.2025 21.298L93.2519 19.1072L93.1399 19.0024L93.0177 18.9095L91.2025 21.298ZM92.1685 35.65L89.6943 33.9534L89.6877 33.9631L92.1685 35.65ZM75.3325 39.79L73.6683 42.2861L73.6871 42.2987L73.7061 42.3109L75.3325 39.79ZM73.6765 38.41L71.5551 40.5313L71.6175 40.5937L71.6834 40.6522L73.6765 38.41ZM71.6065 36.616L73.3502 34.1748L73.2697 34.1173L73.1855 34.0652L71.6065 36.616ZM56.7025 37.03L58.4462 39.4712L58.4566 39.4637L58.467 39.4562L56.7025 37.03ZM57.2545 49.036L55.5675 51.5168L55.59 51.532L55.6127 51.5469L57.2545 49.036ZM66.0865 52.21L65.6186 55.1733L65.6186 55.1733L66.0865 52.21ZM77.5405 54.832L76.7078 57.7141L76.7376 57.7227L76.7675 57.7307L77.5405 54.832ZM88.9945 58.972L87.7102 61.6832L87.7102 61.6832L88.9945 58.972ZM97.6885 67.666L95.066 69.1229L95.0854 69.1578L95.1057 69.1922L97.6885 67.666ZM97.6885 98.578L100.339 99.9841L100.344 99.9731L100.35 99.9621L97.6885 98.578ZM88.3045 109.066L86.6822 106.542L86.672 106.549L86.6619 106.556L88.3045 109.066ZM52.1485 114.862L51.3243 117.747L51.3562 117.756L51.3884 117.764L52.1485 114.862ZM42.7645 110.86L44.4062 108.349L44.3612 108.32L44.3151 108.292L42.7645 110.86ZM32.5525 102.304L35.0102 100.584L34.9456 100.491L34.8743 100.404L32.5525 102.304ZM33.6388 98.8942C31.4209 96.1645 30.7225 94.2081 30.7225 92.92H24.7225C24.7225 96.2319 26.416 99.5195 28.9821 102.678L33.6388 98.8942ZM30.7225 92.92C30.7225 92.5225 30.9029 91.7097 31.7415 90.3834C32.5607 89.088 33.8683 87.5227 35.7527 85.6821L31.5602 81.3899C29.4887 83.4133 27.8292 85.344 26.6704 87.1766C25.5311 88.9783 24.7225 90.9255 24.7225 92.92H30.7225ZM35.7341 85.7002C37.6152 83.8942 39.3432 83.224 40.9705 83.224V77.224C37.4457 77.224 34.2977 78.7618 31.5789 81.3718L35.7341 85.7002ZM40.9705 83.224C41.4212 83.224 42.3797 83.4523 43.9745 84.4746C45.5187 85.4645 47.3948 87.027 49.6131 89.2453L53.8558 85.0027C51.4741 82.621 49.2563 80.7335 47.2125 79.4234C45.2192 78.1457 43.0957 77.224 40.9705 77.224V83.224ZM49.4187 89.0311C50.9809 90.9282 53.1089 92.6494 55.6822 94.233L58.8268 89.123C56.616 87.7625 55.064 86.4478 54.0503 85.2169L49.4187 89.0311ZM55.7553 94.2766C58.4439 95.8277 61.1706 96.748 63.8785 96.748V90.748C62.5383 90.748 60.8491 90.2883 58.7536 89.0794L55.7553 94.2766ZM63.8785 96.748C68.4884 96.748 72.5029 95.8184 75.4023 93.449C78.4177 90.9848 79.7125 87.3963 79.7125 83.26H73.7125C73.7125 86.1157 72.8683 87.7712 71.6056 88.803C70.2271 89.9296 67.8246 90.748 63.8785 90.748V96.748ZM79.7125 83.26C79.7125 79.7431 77.6192 77.1457 74.6236 75.4174L71.6253 80.6146C73.4137 81.6463 73.7125 82.5449 73.7125 83.26H79.7125ZM74.7416 75.4892C72.0321 73.7551 68.7421 72.5858 64.9739 71.8916L63.887 77.7924C67.1108 78.3862 69.6168 79.3329 71.5073 80.5428L74.7416 75.4892ZM64.9739 71.8916C61.6474 71.2789 58.0187 70.3084 54.0825 68.9665L52.1464 74.6455C56.3062 76.0636 60.2215 77.1171 63.887 77.7924L64.9739 71.8916ZM54.1397 68.9866C50.2271 67.5639 46.5987 65.9251 43.2495 64.0743L40.3474 69.3257C43.9902 71.3389 47.9058 73.1041 52.0892 74.6254L54.1397 68.9866ZM43.2495 64.0743C40.3173 62.4538 37.7373 59.8525 35.5641 56.0912L30.3689 59.0928C32.9796 63.6115 36.2876 67.0822 40.3474 69.3257L43.2495 64.0743ZM35.6023 56.1595C33.5889 52.4547 32.5165 47.9098 32.5165 42.412H26.5165C26.5165 48.6902 27.744 54.2653 30.3306 59.0245L35.6023 56.1595ZM32.5165 42.412C32.5165 35.1503 35.1624 28.8647 40.6078 23.4193L36.3651 19.1767C29.8505 25.6913 26.5165 33.4817 26.5165 42.412H32.5165ZM40.6078 23.4193C46.0022 18.0249 53.4092 15.19 63.1885 15.19V9.18999C52.1757 9.18999 43.1147 12.4271 36.3651 19.1767L40.6078 23.4193ZM63.1885 15.19C68.4429 15.19 73.1366 15.8906 77.2993 17.2498L79.1617 11.5462C74.3083 9.96142 68.974 9.18999 63.1885 9.18999V15.19ZM77.3684 17.2715C81.9138 18.6351 84.5741 19.9215 85.8201 20.9707L89.6849 16.3813C87.4348 14.4865 83.7472 12.9209 79.0925 11.5245L77.3684 17.2715ZM85.9372 21.0645L89.3872 23.6865L93.0177 18.9095L89.5677 16.2875L85.9372 21.0645ZM89.153 23.4888C90.4705 24.7213 91.3461 25.7563 91.8757 26.5934C92.4142 27.4446 92.4805 27.9087 92.4805 28.06H98.4805C98.4805 26.3713 97.8337 24.7884 96.9462 23.3856C96.0498 21.9687 94.7865 20.5427 93.2519 19.1072L89.153 23.4888ZM92.4805 28.06C92.4805 28.9138 91.8689 30.7821 89.6943 33.9534L94.6426 37.3466C96.8841 34.0779 98.4805 30.8861 98.4805 28.06H92.4805ZM89.6877 33.9631C86.7369 38.3024 84.301 39.55 82.5085 39.55V45.55C87.3399 45.55 91.344 42.1976 94.6492 37.3369L89.6877 33.9631ZM82.5085 39.55C81.4434 39.55 79.6472 39.0035 76.9588 37.2691L73.7061 42.3109C76.7217 44.2565 79.7095 45.55 82.5085 45.55V39.55ZM76.9966 37.2939C77.0009 37.2967 76.8977 37.2237 76.632 37.0023C76.3899 36.8005 76.071 36.5246 75.6695 36.1678L71.6834 40.6522C72.4727 41.3539 73.1858 41.9644 73.6683 42.2861L76.9966 37.2939ZM75.7978 36.2887C74.9791 35.47 74.1629 34.7553 73.3502 34.1748L69.8628 39.0572C70.338 39.3967 70.9018 39.878 71.5551 40.5313L75.7978 36.2887ZM73.1855 34.0652C70.645 32.4925 67.566 31.822 64.1545 31.822V37.822C66.8149 37.822 68.704 38.3475 70.0274 39.1668L73.1855 34.0652ZM64.1545 31.822C60.6917 31.822 57.5607 32.6963 54.9379 34.6038L58.467 39.4562C59.8922 38.4196 61.7292 37.822 64.1545 37.822V31.822ZM54.9587 34.5888C52.1632 36.5856 50.8045 39.5154 50.8045 42.964H56.8045C56.8045 41.2606 57.3778 40.2344 58.4462 39.4712L54.9587 34.5888ZM50.8045 42.964C50.8045 46.5727 52.5611 49.4724 55.5675 51.5168L58.9414 46.5552C57.3478 45.4716 56.8045 44.3233 56.8045 42.964H50.8045ZM55.6127 51.5469C58.4337 53.3914 61.8009 54.5705 65.6186 55.1733L66.5544 49.2467C63.38 48.7455 60.8593 47.8086 58.8962 46.5251L55.6127 51.5469ZM65.6186 55.1733C68.9684 55.7022 72.6629 56.5456 76.7078 57.7141L78.3731 51.9499C74.138 50.7264 70.1965 49.8218 66.5543 49.2467L65.6186 55.1733ZM76.7675 57.7307C80.7502 58.7928 84.3951 60.1129 87.7102 61.6832L90.2787 56.2608C86.6019 54.5191 82.6107 53.0792 78.3134 51.9333L76.7675 57.7307ZM87.7102 61.6832C90.5235 63.0158 93.0008 65.4057 95.066 69.1229L100.311 66.2091C97.7761 61.6463 94.4575 58.2402 90.2787 56.2608L87.7102 61.6832ZM95.1057 69.1922C97.1597 72.6682 98.2765 77.1212 98.2765 82.708H104.276C104.276 76.3348 103.001 70.7598 100.271 66.1398L95.1057 69.1922ZM98.2765 82.708C98.2765 88.2804 97.1646 93.0828 95.0268 97.1939L100.35 99.9621C102.996 94.8732 104.276 89.0956 104.276 82.708H98.2765ZM95.0384 97.1719C92.8602 101.277 90.0669 104.367 86.6822 106.542L89.9267 111.59C94.27 108.797 97.7327 104.895 100.339 99.9841L95.0384 97.1719ZM86.6619 106.556C79.6713 111.13 72.2797 113.38 64.4305 113.38V119.38C73.5092 119.38 82.0336 116.754 89.947 111.576L86.6619 106.556ZM64.4305 113.38C60.342 113.38 56.5049 112.902 52.9085 111.96L51.3884 117.764C55.52 118.846 59.871 119.38 64.4305 119.38V113.38ZM52.9726 111.977C49.2905 110.925 46.4667 109.696 44.4062 108.349L41.1227 113.371C43.8462 115.152 47.2784 116.591 51.3243 117.747L52.9726 111.977ZM44.3151 108.292C39.5832 105.435 36.5914 102.843 35.0102 100.584L30.0948 104.024C32.3775 107.285 36.1938 110.397 41.2139 113.428L44.3151 108.292ZM34.8743 100.404L33.6323 98.8863L28.9886 102.686L30.2306 104.204L34.8743 100.404Z"
        fill="#232323" mask="url(#path-2-outside-1_953_2)" />
    <defs>
        <linearGradient id="paint0_linear_953_2" x1="24" y1="10" x2="130.181" y2="48.4371"
            gradientUnits="userSpaceOnUse">
            <stop stop-color="#FF9999" />
            <stop offset="1" stop-color="#FF4646" />
        </linearGradient>
    </defs>
</svg>
    